<?xml version="1.0" encoding="utf-8"?>
<!-- Generator: Adobe Illustrator 27.3.1, SVG Export Plug-In . SVG Version: 6.00 Build 0)  -->
<svg version="1.1" id="Шар_1" xmlns="http://www.w3.org/2000/svg" xmlns:xlink="http://www.w3.org/1999/xlink" x="0px" y="0px"
	 viewBox="0 0 512 512" style="enable-background:new 0 0 512 512;" xml:space="preserve">
<style type="text/css">
	.st0{fill:#9EA4AD;}
	.st1{fill:#D6DDE7;}
	.st2{fill:#ECF2FA;}
	.st3{fill:#FA8132;}
	.st4{fill:#CD5D12;}
	.st5{fill:#E86A17;}
	.st6{fill:#CDA400;}
	.st7{fill:#FFD948;}
	.st8{fill:#FFCC00;}
	.st9{fill:#88E060;}
	.st10{fill:#5FB13A;}
	.st11{fill:#73CD4B;}
	.st12{fill:#1989B8;}
	.st13{fill:#35BAF3;}
	.st14{fill:#1EA7E1;}
	.st15{fill:#B6BEC9;}
	.st16{fill:#C9D0D9;}
	.st17{fill:#B6B6B6;}
	.st18{fill:#FFFFFF;}
	.st19{fill:#ECECEC;}
	.st20{fill-opacity:0.2;}
	.st21{fill-opacity:0.102;}
	.st22{fill:#A1A1A1;}
	.st23{fill:#E5E5E5;}
	.st24{fill:#B7B7B7;}
	.st25{fill:#E6E6E6;}
	.st26{fill:#333333;}
	.st27{fill:#AAE9FF;fill-opacity:0.302;}
	.st28{fill:#BDE7F5;fill-opacity:0.8;}
	.st29{fill:#666666;}
	.st30{fill:#414141;}
	.st31{fill:#C9C9C9;}
	.st32{fill:#8AC2D4;fill-opacity:0.8;}
</style>
<path class="st0" d="M186.5,331.7v44.6c0,1.2-0.3,2.1-1,2.7c-0.6,0.6-1.5,1-2.7,1h-44.5c-2.4,0-3.7-1.2-3.7-3.7v-44.6
	c0-2.4,1.2-3.7,3.7-3.7h44.5c1.2,0,2.1,0.3,2.7,1C186.2,329.6,186.5,330.5,186.5,331.7 M185.5,331.7c0-1.7-0.9-2.6-2.6-2.6h-44.5
	c-1.7,0-2.6,0.9-2.6,2.6v44.6c0,1.7,0.9,2.6,2.6,2.6h44.5c1.8,0,2.6-0.9,2.6-2.6V331.7"/>
<path class="st1" d="M182.8,330.1c1.1,0,1.6,0.5,1.6,1.6v44.6c0,1.1-0.5,1.6-1.6,1.6h-44.5c-1.1,0-1.6-0.5-1.6-1.6v-44.6
	c0-1.1,0.5-1.6,1.6-1.6H182.8"/>
<path class="st2" d="M182.8,330.1h-44.5c-1.1,0-1.6,0.5-1.6,1.6v44.6c0,1.1,0.5,1.6,1.6,1.6h44.5c1.1,0,1.6-0.5,1.6-1.6v-44.6
	C184.4,330.6,183.9,330.1,182.8,330.1 M185.5,331.7v44.6c0,1.7-0.9,2.6-2.6,2.6h-44.5c-1.7,0-2.6-0.9-2.6-2.6v-44.6
	c0-1.7,0.9-2.6,2.6-2.6h44.5C184.6,329.1,185.5,330,185.5,331.7"/>
<path class="st0" d="M139.8,332.2c0,0.3-0.1,0.5-0.3,0.7s-0.4,0.3-0.7,0.3s-0.5-0.1-0.8-0.3c-0.2-0.2-0.3-0.4-0.3-0.7
	c0-0.3,0.1-0.5,0.3-0.8c0.2-0.2,0.5-0.3,0.8-0.3s0.5,0.1,0.7,0.3S139.8,331.9,139.8,332.2"/>
<path class="st0" d="M183.1,332.9c-0.2,0.2-0.4,0.3-0.7,0.3s-0.5-0.1-0.8-0.3c-0.2-0.2-0.3-0.4-0.3-0.7c0-0.3,0.1-0.5,0.3-0.8
	c0.2-0.2,0.5-0.3,0.8-0.3s0.5,0.1,0.7,0.3c0.2,0.2,0.3,0.5,0.3,0.8C183.4,332.5,183.3,332.7,183.1,332.9"/>
<path class="st0" d="M139.5,376.5c-0.2,0.2-0.4,0.3-0.7,0.3s-0.5-0.1-0.8-0.3c-0.2-0.2-0.3-0.4-0.3-0.7c0-0.3,0.1-0.5,0.3-0.8
	c0.2-0.2,0.5-0.3,0.8-0.3s0.5,0.1,0.7,0.3c0.2,0.2,0.3,0.5,0.3,0.8C139.8,376.1,139.7,376.3,139.5,376.5"/>
<path class="st0" d="M182.3,376.8c-0.3,0-0.5-0.1-0.8-0.3c-0.2-0.2-0.3-0.4-0.3-0.7c0-0.3,0.1-0.5,0.3-0.8c0.2-0.2,0.5-0.3,0.8-0.3
	s0.5,0.1,0.7,0.3c0.2,0.2,0.3,0.5,0.3,0.8s-0.1,0.5-0.3,0.7C182.9,376.7,182.6,376.8,182.3,376.8"/>
<g>
	<path class="st3" d="M192.7,342.7v-11c0-1.7,0.9-2.6,2.6-2.6h27.2l-0.4,1h-26.7c-1.1,0-1.6,0.5-1.6,1.6v11H192.7"/>
	<path class="st2" d="M192.7,342.7h1h23.5l-0.4,1h-23.1v32.5c0,1.1,0.5,1.6,1.6,1.6h44.5c1.1,0,1.6-0.5,1.6-1.6v-44.6
		c0-1.1-0.5-1.6-1.6-1.6H222l0.4-1h17.4c1.8,0,2.6,0.9,2.6,2.6v44.6c0,1.7-0.9,2.6-2.6,2.6h-44.5c-1.7,0-2.6-0.9-2.6-2.6
		L192.7,342.7"/>
	<path class="st0" d="M192.7,342.7v33.6c0,1.7,0.9,2.6,2.6,2.6h44.5c1.8,0,2.6-0.9,2.6-2.6v-44.6c0-1.7-0.9-2.6-2.6-2.6h-17.4l0.4-1
		h17c1.2,0,2.1,0.3,2.7,1c0.6,0.6,1,1.5,1,2.7v44.6c0,1.2-0.3,2.1-1,2.7c-0.6,0.6-1.5,1-2.7,1h-44.5c-2.4,0-3.7-1.2-3.7-3.7v-33.6
		h1.1"/>
	<path class="st4" d="M192.7,342.7h-1v-11c0-2.4,1.2-3.7,3.7-3.7H223l-0.4,1h-27.2c-1.7,0-2.6,0.9-2.6,2.6v11.1"/>
	<path class="st5" d="M193.8,342.7v-11c0-1.1,0.5-1.6,1.6-1.6h26.7l-4.8,12.6H193.8"/>
	<path class="st1" d="M217.3,342.7l4.8-12.6h17.8c1.1,0,1.6,0.5,1.6,1.6v44.6c0,1.1-0.5,1.6-1.6,1.6h-44.5c-1.1,0-1.6-0.5-1.6-1.6
		v-32.5h23.1L217.3,342.7"/>
	<path class="st0" d="M239.4,333.2c-0.3,0-0.5-0.1-0.8-0.3c-0.2-0.2-0.3-0.4-0.3-0.7c0-0.3,0.1-0.5,0.3-0.8c0.2-0.2,0.5-0.3,0.8-0.3
		s0.5,0.1,0.7,0.3c0.2,0.2,0.3,0.5,0.3,0.8s-0.1,0.5-0.3,0.7C240,333.1,239.7,333.2,239.4,333.2"/>
	<path class="st0" d="M195.8,376.8c-0.3,0-0.5-0.1-0.8-0.3c-0.2-0.2-0.3-0.4-0.3-0.7c0-0.3,0.1-0.5,0.3-0.8c0.2-0.2,0.5-0.3,0.8-0.3
		s0.5,0.1,0.7,0.3c0.2,0.2,0.3,0.5,0.3,0.8s-0.1,0.5-0.3,0.7C196.4,376.7,196.1,376.8,195.8,376.8"/>
	<path class="st0" d="M238.7,376.5c-0.2-0.2-0.3-0.4-0.3-0.7c0-0.3,0.1-0.5,0.3-0.8c0.2-0.2,0.5-0.3,0.8-0.3s0.5,0.1,0.7,0.3
		c0.2,0.2,0.3,0.5,0.3,0.8s-0.1,0.5-0.3,0.7s-0.4,0.3-0.7,0.3S238.9,376.7,238.7,376.5"/>
</g>
<path class="st0" d="M222.9,385.1h17c1.2,0,2.1,0.3,2.7,1c0.6,0.6,1,1.5,1,2.7v44.6c0,1.2-0.3,2.1-1,2.7c-0.6,0.6-1.5,1-2.7,1h-44.5
	c-2.4,0-3.7-1.2-3.7-3.7v-33.6h1v33.6c0,1.7,0.9,2.6,2.6,2.6h44.5c1.8,0,2.6-0.9,2.6-2.6v-44.6c0-1.7-0.9-2.6-2.6-2.6h-17.4
	L222.9,385.1"/>
<path class="st2" d="M222.5,386.2h17.4c1.8,0,2.6,0.9,2.6,2.6v44.6c0,1.7-0.9,2.6-2.6,2.6h-44.5c-1.7,0-2.6-0.9-2.6-2.6v-33.6h1
	h23.5l-0.4,1h-23.1v32.5c0,1.1,0.5,1.6,1.6,1.6h44.5c1.1,0,1.6-0.5,1.6-1.6v-44.6c0-1.1-0.5-1.6-1.6-1.6h-17.8L222.5,386.2"/>
<path class="st1" d="M222.1,387.2h17.8c1.1,0,1.6,0.5,1.6,1.6v44.6c0,1.1-0.5,1.6-1.6,1.6h-44.5c-1.1,0-1.6-0.5-1.6-1.6v-32.5h23.1
	l0.4-1L222.1,387.2"/>
<path class="st6" d="M191.7,399.8v-11c0-2.4,1.2-3.7,3.7-3.7H223l-0.4,1h-27.2c-1.7,0-2.6,0.9-2.6,2.6v11h-1.1"/>
<path class="st7" d="M193.8,399.8h-1v-11c0-1.7,0.9-2.6,2.6-2.6h27.2l-0.4,1h-26.7c-1.1,0-1.6,0.5-1.6,1.6v11"/>
<path class="st8" d="M193.8,399.8v-11c0-1.1,0.5-1.6,1.6-1.6h26.7l-4.8,12.6H193.8"/>
<path class="st0" d="M238.7,390c-0.2-0.2-0.3-0.4-0.3-0.7s0.1-0.5,0.3-0.8c0.2-0.2,0.5-0.3,0.8-0.3s0.5,0.1,0.7,0.3
	c0.2,0.2,0.3,0.5,0.3,0.8s-0.1,0.5-0.3,0.7s-0.4,0.3-0.7,0.3S238.9,390.2,238.7,390"/>
<path class="st0" d="M195.1,433.6c-0.2-0.2-0.3-0.4-0.3-0.7s0.1-0.5,0.3-0.8c0.2-0.2,0.5-0.3,0.8-0.3s0.5,0.1,0.7,0.3
	c0.2,0.2,0.3,0.5,0.3,0.8s-0.1,0.5-0.3,0.7s-0.4,0.3-0.7,0.3C195.5,433.9,195.3,433.8,195.1,433.6"/>
<path class="st0" d="M238.4,432.8c0-0.3,0.1-0.5,0.3-0.8c0.2-0.2,0.5-0.3,0.8-0.3s0.5,0.1,0.7,0.3c0.2,0.2,0.3,0.5,0.3,0.8
	s-0.1,0.5-0.3,0.7s-0.4,0.3-0.7,0.3s-0.5-0.1-0.8-0.3C238.5,433.4,238.4,433.1,238.4,432.8"/>
<path class="st0" d="M280,385.1h17c1.2,0,2.1,0.3,2.7,1c0.6,0.6,1,1.5,1,2.7v44.6c0,1.2-0.3,2.1-1,2.7c-0.6,0.6-1.5,1-2.7,1h-44.5
	c-2.4,0-3.7-1.2-3.7-3.7v-33.6h1v33.6c0,1.7,0.9,2.6,2.6,2.6H297c1.8,0,2.6-0.9,2.6-2.6v-44.6c0-1.7-0.9-2.6-2.6-2.6h-17.4
	L280,385.1"/>
<path class="st2" d="M279.6,386.2H297c1.8,0,2.6,0.9,2.6,2.6v44.6c0,1.7-0.9,2.6-2.6,2.6h-44.5c-1.7,0-2.6-0.9-2.6-2.6v-33.6h1h23.5
	l-0.4,1h-23.1v32.5c0,1.1,0.5,1.6,1.6,1.6H297c1.1,0,1.6-0.5,1.6-1.6v-44.6c0-1.1-0.5-1.6-1.6-1.6h-17.8L279.6,386.2"/>
<path class="st1" d="M279.2,387.2H297c1.1,0,1.6,0.5,1.6,1.6v44.6c0,1.1-0.5,1.6-1.6,1.6h-44.5c-1.1,0-1.6-0.5-1.6-1.6v-32.5H274
	l0.4-1L279.2,387.2"/>
<path class="st9" d="M279.2,387.2h-26.7c-1.1,0-1.6,0.5-1.6,1.6v11h-1v-11c0-1.7,0.9-2.6,2.6-2.6h27.2L279.2,387.2"/>
<path class="st10" d="M248.8,399.8v-11c0-2.4,1.2-3.7,3.7-3.7H280l-0.4,1h-27.2c-1.7,0-2.6,0.9-2.6,2.6v11h-1"/>
<path class="st11" d="M279.2,387.2l-4.8,12.6h-23.5v-11c0-1.1,0.5-1.6,1.6-1.6H279.2"/>
<path class="st0" d="M295.5,389.3c0-0.3,0.1-0.5,0.3-0.8c0.2-0.2,0.5-0.3,0.8-0.3s0.5,0.1,0.7,0.3c0.2,0.2,0.3,0.5,0.3,0.8
	s-0.1,0.5-0.3,0.7c-0.2,0.2-0.4,0.3-0.7,0.3s-0.5-0.1-0.8-0.3C295.5,389.8,295.5,389.6,295.5,389.3"/>
<path class="st0" d="M251.9,432.8c0-0.3,0.1-0.5,0.3-0.8c0.2-0.2,0.5-0.3,0.8-0.3s0.5,0.1,0.7,0.3c0.2,0.2,0.3,0.5,0.3,0.8
	s-0.1,0.5-0.3,0.7s-0.4,0.3-0.7,0.3s-0.5-0.1-0.8-0.3C252,433.4,251.9,433.1,251.9,432.8"/>
<path class="st0" d="M295.7,432.1c0.2-0.2,0.5-0.3,0.8-0.3s0.5,0.1,0.7,0.3c0.2,0.2,0.3,0.5,0.3,0.8s-0.1,0.5-0.3,0.7
	c-0.2,0.2-0.4,0.3-0.7,0.3s-0.5-0.1-0.8-0.3c-0.2-0.2-0.3-0.4-0.3-0.7S295.5,432.3,295.7,432.1"/>
<g>
	<path class="st12" d="M279.6,329.1h-27.2c-1.7,0-2.6,0.9-2.6,2.6v11h-1v-11c0-2.4,1.2-3.7,3.7-3.7H280L279.6,329.1"/>
	<path class="st0" d="M279.6,329.1l0.4-1h17c1.2,0,2.1,0.3,2.7,1c0.6,0.6,1,1.5,1,2.7v44.6c0,1.2-0.3,2.1-1,2.7
		c-0.6,0.6-1.5,1-2.7,1h-44.5c-2.4,0-3.7-1.2-3.7-3.7v-33.6h1v33.6c0,1.7,0.9,2.6,2.6,2.6H297c1.8,0,2.6-0.9,2.6-2.6v-44.6
		c0-1.7-0.9-2.6-2.6-2.6h-17.4"/>
	<path class="st13" d="M279.6,329.1l-0.4,1h-26.7c-1.1,0-1.6,0.5-1.6,1.6v11h-1v-11c0-1.7,0.9-2.6,2.6-2.6H279.6"/>
	<path class="st2" d="M279.6,329.1H297c1.8,0,2.6,0.9,2.6,2.6v44.6c0,1.7-0.9,2.6-2.6,2.6h-44.5c-1.7,0-2.6-0.9-2.6-2.6v-33.6h1
		h23.5l-0.4,1h-23.1v32.5c0,1.1,0.5,1.6,1.6,1.6H297c1.1,0,1.6-0.5,1.6-1.6v-44.6c0-1.1-0.5-1.6-1.6-1.6h-17.8L279.6,329.1"/>
	<path class="st1" d="M274.3,342.7l4.8-12.6H297c1.1,0,1.6,0.5,1.6,1.6v44.6c0,1.1-0.5,1.6-1.6,1.6h-44.5c-1.1,0-1.6-0.5-1.6-1.6
		v-32.5H274L274.3,342.7"/>
	<path class="st14" d="M274.3,342.7h-23.5v-11c0-1.1,0.5-1.6,1.6-1.6h26.7L274.3,342.7"/>
	<path class="st0" d="M295.7,332.9c-0.2-0.2-0.3-0.4-0.3-0.7c0-0.3,0.1-0.5,0.3-0.8c0.2-0.2,0.5-0.3,0.8-0.3s0.5,0.1,0.7,0.3
		c0.2,0.2,0.3,0.5,0.3,0.8s-0.1,0.5-0.3,0.7c-0.2,0.2-0.4,0.3-0.7,0.3S295.9,333.1,295.7,332.9"/>
	<path class="st0" d="M252.2,376.5c-0.2-0.2-0.3-0.4-0.3-0.7c0-0.3,0.1-0.5,0.3-0.8c0.2-0.2,0.5-0.3,0.8-0.3s0.5,0.1,0.7,0.3
		c0.2,0.2,0.3,0.5,0.3,0.8s-0.1,0.5-0.3,0.7s-0.4,0.3-0.7,0.3C252.6,376.8,252.4,376.7,252.2,376.5"/>
	<path class="st0" d="M295.5,375.8c0-0.3,0.1-0.5,0.3-0.8c0.2-0.2,0.5-0.3,0.8-0.3s0.5,0.1,0.7,0.3c0.2,0.2,0.3,0.5,0.3,0.8
		s-0.1,0.5-0.3,0.7c-0.2,0.2-0.4,0.3-0.7,0.3s-0.5-0.1-0.8-0.3C295.5,376.3,295.5,376.1,295.5,375.8"/>
</g>
<path class="st4" d="M305.8,342.7v-11c0-2.4,1.2-3.7,3.7-3.7H354c1.2,0,2.1,0.3,2.7,1c0.6,0.6,1,1.5,1,2.7v11h-1v-11
	c0-1.7-0.9-2.6-2.6-2.6h-44.5c-1.7,0-2.6,0.9-2.6,2.6v11H305.8"/>
<path class="st5" d="M307.9,342.7v-11c0-1.1,0.5-1.6,1.6-1.6H354c1.1,0,1.6,0.5,1.6,1.6v11H307.9"/>
<path class="st3" d="M307.9,342.7h-1v-11c0-1.7,0.9-2.6,2.6-2.6H354c1.8,0,2.6,0.9,2.6,2.6v11h-1v-11c0-1.1-0.5-1.6-1.6-1.6h-44.5
	c-1.1,0-1.6,0.5-1.6,1.6V342.7"/>
<path class="st0" d="M357.7,342.7v33.6c0,1.2-0.3,2.1-1,2.7c-0.6,0.6-1.5,1-2.7,1h-44.5c-2.4,0-3.7-1.2-3.7-3.7v-33.6h1v33.6
	c0,1.7,0.9,2.6,2.6,2.6H354c1.8,0,2.6-0.9,2.6-2.6v-33.6H357.7"/>
<path class="st2" d="M307.9,342.7h47.7h1v33.6c0,1.7-0.9,2.6-2.6,2.6h-44.5c-1.7,0-2.6-0.9-2.6-2.6v-33.6H307.9 M355.6,376.3v-32.5
	h-47.7v32.5c0,1.1,0.5,1.6,1.6,1.6H354C355.1,377.9,355.6,377.3,355.6,376.3"/>
<path class="st1" d="M355.6,376.3c0,1.1-0.5,1.6-1.6,1.6h-44.5c-1.1,0-1.6-0.5-1.6-1.6v-32.5h47.7V376.3"/>
<path class="st0" d="M310.7,375c0.2,0.2,0.3,0.5,0.3,0.8s-0.1,0.5-0.3,0.7c-0.2,0.2-0.4,0.3-0.7,0.3s-0.5-0.1-0.8-0.3
	c-0.2-0.2-0.3-0.4-0.3-0.7c0-0.3,0.1-0.5,0.3-0.8c0.2-0.2,0.5-0.3,0.8-0.3S310.5,374.8,310.7,375"/>
<path class="st0" d="M352.5,375.8c0-0.3,0.1-0.5,0.3-0.8c0.2-0.2,0.5-0.3,0.8-0.3s0.5,0.1,0.7,0.3c0.2,0.2,0.3,0.5,0.3,0.8
	s-0.1,0.5-0.3,0.7c-0.2,0.2-0.4,0.3-0.7,0.3c-0.3,0-0.5-0.1-0.8-0.3C352.6,376.3,352.5,376.1,352.5,375.8"/>
<path class="st13" d="M363.9,342.7v-11c0-1.7,0.9-2.6,2.6-2.6H411c1.8,0,2.6,0.9,2.6,2.6v11h-1v-11c0-1.1-0.5-1.6-1.6-1.6h-44.5
	c-1.1,0-1.6,0.5-1.6,1.6v11H363.9"/>
<path class="st2" d="M363.9,342.7h1h47.7h1v33.6c0,1.7-0.9,2.6-2.6,2.6h-44.5c-1.7,0-2.6-0.9-2.6-2.6V342.7 M365,343.7v32.5
	c0,1.1,0.5,1.6,1.6,1.6h44.5c1.1,0,1.6-0.5,1.6-1.6v-32.5H365"/>
<path class="st14" d="M365,342.7v-11c0-1.1,0.5-1.6,1.6-1.6h44.5c1.1,0,1.6,0.5,1.6,1.6v11H365"/>
<path class="st12" d="M413.7,342.7v-11c0-1.7-0.9-2.6-2.6-2.6h-44.5c-1.7,0-2.6,0.9-2.6,2.6v11h-1v-11c0-2.4,1.2-3.7,3.7-3.7h44.5
	c1.2,0,2.1,0.3,2.7,1c0.6,0.6,1,1.5,1,2.7v11H413.7"/>
<path class="st0" d="M413.7,342.7h1v33.6c0,1.2-0.3,2.1-1,2.7c-0.6,0.6-1.5,1-2.7,1h-44.5c-2.4,0-3.7-1.2-3.7-3.7v-33.6h1v33.6
	c0,1.7,0.9,2.6,2.6,2.6h44.5c1.8,0,2.6-0.9,2.6-2.6v-33.6"/>
<path class="st1" d="M365,343.7h47.7v32.5c0,1.1-0.5,1.6-1.6,1.6h-44.5c-1.1,0-1.6-0.5-1.6-1.6V343.7"/>
<path class="st0" d="M366,375.8c0-0.3,0.1-0.5,0.3-0.8c0.2-0.2,0.5-0.3,0.8-0.3s0.5,0.1,0.7,0.3c0.2,0.2,0.3,0.5,0.3,0.8
	s-0.1,0.5-0.3,0.7c-0.2,0.2-0.4,0.3-0.7,0.3s-0.5-0.1-0.8-0.3C366.1,376.3,366,376.1,366,375.8"/>
<path class="st0" d="M409.9,375c0.2-0.2,0.5-0.3,0.8-0.3s0.5,0.1,0.7,0.3c0.2,0.2,0.3,0.5,0.3,0.8s-0.1,0.5-0.3,0.7
	c-0.2,0.2-0.4,0.3-0.7,0.3s-0.5-0.1-0.8-0.3c-0.2-0.2-0.3-0.4-0.3-0.7C409.6,375.5,409.7,375.2,409.9,375"/>
<path class="st10" d="M362.9,399.8v-11c0-2.4,1.2-3.7,3.7-3.7h44.5c1.2,0,2.1,0.3,2.7,1c0.6,0.6,1,1.5,1,2.7v11h-1v-11
	c0-1.7-0.9-2.6-2.6-2.6h-44.5c-1.7,0-2.6,0.9-2.6,2.6v11H362.9"/>
<path class="st0" d="M362.9,399.8h1v33.6c0,1.7,0.9,2.6,2.6,2.6H411c1.8,0,2.6-0.9,2.6-2.6v-33.6h1v33.6c0,1.2-0.3,2.1-1,2.7
	c-0.6,0.6-1.5,1-2.7,1h-44.5c-2.4,0-3.7-1.2-3.7-3.7v-33.6"/>
<path class="st9" d="M363.9,399.8v-11c0-1.7,0.9-2.6,2.6-2.6H411c1.8,0,2.6,0.9,2.6,2.6v11h-1v-11c0-1.1-0.5-1.6-1.6-1.6h-44.5
	c-1.1,0-1.6,0.5-1.6,1.6v11H363.9"/>
<path class="st2" d="M363.9,399.8h1h47.7h1v33.6c0,1.7-0.9,2.6-2.6,2.6h-44.5c-1.7,0-2.6-0.9-2.6-2.6V399.8 M366.6,434.9h44.5
	c1.1,0,1.6-0.5,1.6-1.6v-32.5H365v32.5C365,434.4,365.5,434.9,366.6,434.9"/>
<path class="st11" d="M365,399.8v-11c0-1.1,0.5-1.6,1.6-1.6h44.5c1.1,0,1.6,0.5,1.6,1.6v11H365"/>
<path class="st1" d="M366.6,434.9c-1.1,0-1.6-0.5-1.6-1.6v-32.5h47.7v32.5c0,1.1-0.5,1.6-1.6,1.6H366.6"/>
<path class="st0" d="M366.3,432.1c0.2-0.2,0.5-0.3,0.8-0.3s0.5,0.1,0.7,0.3c0.2,0.2,0.3,0.5,0.3,0.8s-0.1,0.5-0.3,0.7
	c-0.2,0.2-0.4,0.3-0.7,0.3s-0.5-0.1-0.8-0.3c-0.2-0.2-0.3-0.4-0.3-0.7S366.1,432.3,366.3,432.1"/>
<path class="st0" d="M410.6,431.8c0.3,0,0.5,0.1,0.7,0.3c0.2,0.2,0.3,0.5,0.3,0.8s-0.1,0.5-0.3,0.7c-0.2,0.2-0.4,0.3-0.7,0.3
	s-0.5-0.1-0.8-0.3c-0.2-0.2-0.3-0.4-0.3-0.7s0.1-0.5,0.3-0.8C410.1,431.9,410.3,431.8,410.6,431.8"/>
<path class="st6" d="M305.8,399.8v-11c0-2.4,1.2-3.7,3.7-3.7H354c1.2,0,2.1,0.3,2.7,1c0.6,0.6,1,1.5,1,2.7v11h-1v-11
	c0-1.7-0.9-2.6-2.6-2.6h-44.5c-1.7,0-2.6,0.9-2.6,2.6v11H305.8"/>
<path class="st8" d="M307.9,399.8v-11c0-1.1,0.5-1.6,1.6-1.6H354c1.1,0,1.6,0.5,1.6,1.6v11H307.9"/>
<path class="st7" d="M307.9,399.8h-1v-11c0-1.7,0.9-2.6,2.6-2.6H354c1.8,0,2.6,0.9,2.6,2.6v11h-1v-11c0-1.1-0.5-1.6-1.6-1.6h-44.5
	c-1.1,0-1.6,0.5-1.6,1.6V399.8"/>
<path class="st0" d="M357.7,399.8v33.6c0,1.2-0.3,2.1-1,2.7c-0.6,0.6-1.5,1-2.7,1h-44.5c-2.4,0-3.7-1.2-3.7-3.7v-33.6h1v33.6
	c0,1.7,0.9,2.6,2.6,2.6H354c1.8,0,2.6-0.9,2.6-2.6v-33.6H357.7"/>
<path class="st2" d="M307.9,399.8h47.7h1v33.6c0,1.7-0.9,2.6-2.6,2.6h-44.5c-1.7,0-2.6-0.9-2.6-2.6v-33.6H307.9 M355.6,433.3v-32.5
	h-47.7v32.5c0,1.1,0.5,1.6,1.6,1.6H354C355.1,434.9,355.6,434.4,355.6,433.3"/>
<path class="st1" d="M355.6,433.3c0,1.1-0.5,1.6-1.6,1.6h-44.5c-1.1,0-1.6-0.5-1.6-1.6v-32.5h47.7V433.3"/>
<path class="st0" d="M311,432.8c0,0.3-0.1,0.5-0.3,0.7c-0.2,0.2-0.4,0.3-0.7,0.3s-0.5-0.1-0.8-0.3c-0.2-0.2-0.3-0.4-0.3-0.7
	s0.1-0.5,0.3-0.8c0.2-0.2,0.5-0.3,0.8-0.3s0.5,0.1,0.7,0.3C310.9,432.3,311,432.6,311,432.8"/>
<path class="st0" d="M352.8,432.1c0.2-0.2,0.5-0.3,0.8-0.3s0.5,0.1,0.7,0.3c0.2,0.2,0.3,0.5,0.3,0.8s-0.1,0.5-0.3,0.7
	c-0.2,0.2-0.4,0.3-0.7,0.3c-0.3,0-0.5-0.1-0.8-0.3c-0.2-0.2-0.3-0.4-0.3-0.7S352.6,432.3,352.8,432.1"/>
<path class="st15" d="M145,390.2v-0.9c0-2.4,1.2-3.7,3.7-3.7h34.2c1.2,0,2.1,0.3,2.7,1c0.6,0.6,1,1.5,1,2.7v0.9c0-1.1-0.4-2-1-2.5
	c-0.6-0.6-1.5-1-2.7-1h-34.2C146.3,386.7,145,387.8,145,390.2"/>
<path class="st16" d="M145,390.2c0.1-2.4,1.3-3.5,3.7-3.5h34.2c1.2,0,2.1,0.3,2.7,1c0.6,0.6,0.9,1.4,1,2.5v33.5c0,1.1-0.3,2-1,2.6
	c-0.6,0.6-1.5,1-2.7,1h-34.2c-2.4,0-3.6-1.2-3.7-3.5V390.2"/>
<path class="st4" d="M29.8,333.7c0-1.4-0.7-2.1-2.1-2.1H24l-1,0.2c-0.7,0.3-1.1,0.9-1.1,1.9v7.2c0,0.7,0.2,1.2,0.5,1.6l0.5,0.4
	l1,0.2h3.7c0.7,0,1.2-0.2,1.6-0.5c0.3-0.3,0.5-0.9,0.5-1.6v-7.3 M30.1,331.5c0.5,0.5,0.8,1.3,0.8,2.3v7.2c0,0.6-0.1,1.1-0.3,1.6
	l-0.5,0.8c-0.5,0.5-1.3,0.8-2.3,0.8h-3.7l-1-0.1c-0.5-0.1-1-0.4-1.3-0.7l-0.5-0.8c-0.2-0.4-0.3-1-0.3-1.6v-7.2c0-1,0.3-1.8,0.8-2.3
	c0.3-0.4,0.7-0.6,1.3-0.7l1-0.1h3.7C28.8,330.6,29.6,330.9,30.1,331.5"/>
<path class="st3" d="M29.8,333.7v7.2c0,0.7-0.2,1.2-0.5,1.6c-0.3,0.3-0.9,0.5-1.6,0.5H24l-1-0.2l-0.5-0.4c-0.3-0.3-0.5-0.9-0.5-1.6
	v-7.2c0-1,0.4-1.6,1.1-1.9l1-0.2h3.7C29.2,331.7,29.8,332.4,29.8,333.7 M23.1,341.3c0.1,0.5,0.4,0.7,1,0.7h3.7c0.7,0,1-0.3,1-1v-3.6
	H23v3.6L23.1,341.3"/>
<path class="st5" d="M23.1,341.3V341v-3.6h5.8v3.6c0,0.7-0.3,1-1,1h-3.7C23.5,342,23.1,341.8,23.1,341.3"/>
<path class="st12" d="M36.5,333.7c0-1,0.3-1.8,0.8-2.3c0.3-0.4,0.7-0.6,1.3-0.7l1-0.1h3.7c1,0,1.8,0.3,2.3,0.8s0.8,1.3,0.8,2.3v7.2
	c0,0.6-0.1,1.1-0.3,1.6l-0.5,0.8c-0.5,0.5-1.3,0.8-2.3,0.8h-3.7l-1-0.1c-0.5-0.1-1-0.4-1.3-0.7l-0.5-0.8c-0.2-0.4-0.3-1-0.3-1.6
	V333.7 M38.6,331.9c-0.7,0.3-1.1,0.9-1.1,1.9v7.2c0,0.7,0.2,1.2,0.5,1.6l0.5,0.4l1,0.2h3.7c0.7,0,1.2-0.2,1.6-0.5
	c0.3-0.3,0.5-0.9,0.5-1.6v-7.2c0-1.4-0.7-2.1-2.1-2.1h-3.7L38.6,331.9"/>
<path class="st13" d="M38.6,331.9l1-0.2h3.7c1.4,0,2.1,0.7,2.1,2.1v7.2c0,0.7-0.2,1.2-0.5,1.6c-0.3,0.3-0.9,0.5-1.6,0.5h-3.7l-1-0.2
	l-0.5-0.4c-0.3-0.3-0.5-0.9-0.5-1.6v-7.2C37.6,332.8,37.9,332.1,38.6,331.9 M44.4,341v-3.6h-5.8v3.6v0.3c0.1,0.5,0.4,0.7,1,0.7h3.7
	C44,342,44.4,341.7,44.4,341"/>
<path class="st14" d="M44.4,341c0,0.7-0.3,1-1,1h-3.7c-0.6,0-0.9-0.2-1-0.7V341v-3.6h5.8L44.4,341"/>
<path class="st6" d="M61.2,331.5c0.5,0.5,0.8,1.3,0.8,2.3v7.2c0,0.6-0.1,1.1-0.3,1.6l-0.5,0.8c-0.5,0.5-1.3,0.8-2.3,0.8h-3.7l-1-0.1
	c-0.5-0.1-1-0.4-1.3-0.7l-0.5-0.8c-0.2-0.4-0.3-1-0.3-1.6v-7.2c0-1,0.3-1.8,0.8-2.3c0.3-0.4,0.7-0.6,1.3-0.7l1-0.1h3.7
	C59.9,330.6,60.7,330.9,61.2,331.5 M61,333.7c0-1.4-0.7-2.1-2.1-2.1h-3.7c-0.4,0-0.7,0.1-1,0.2c-0.7,0.3-1.1,0.9-1.1,1.9v7.2
	c0,0.7,0.2,1.2,0.5,1.6l0.5,0.4l1,0.2h3.7c0.7,0,1.2-0.2,1.6-0.5c0.3-0.3,0.5-0.9,0.5-1.6L61,333.7"/>
<path class="st7" d="M61,333.7v7.2c0,0.7-0.2,1.2-0.5,1.6c-0.3,0.3-0.9,0.5-1.6,0.5h-3.7l-1-0.2l-0.5-0.4c-0.3-0.3-0.5-0.9-0.5-1.6
	v-7.2c0-1,0.4-1.6,1.1-1.9c0.3-0.1,0.6-0.2,1-0.2H59C60.3,331.7,61,332.4,61,333.7 M59.9,337.4h-5.8v3.6v0.3c0.1,0.5,0.4,0.7,1,0.7
	h3.7c0.7,0,1-0.3,1-1L59.9,337.4"/>
<path class="st8" d="M59.9,337.4v3.6c0,0.7-0.3,1-1,1h-3.7c-0.6,0-0.9-0.2-1-0.7V341v-3.6H59.9"/>
<path class="st10" d="M69.7,331.9c-0.7,0.3-1.1,0.9-1.1,1.9v7.2c0,0.7,0.2,1.2,0.5,1.6l0.5,0.4l1,0.2h3.7c0.7,0,1.2-0.2,1.6-0.5
	c0.3-0.3,0.5-0.9,0.5-1.6v-7.2c0-1.4-0.7-2.1-2.1-2.1h-3.7C70.4,331.7,70,331.7,69.7,331.9 M69.7,330.7l1-0.1h3.7
	c1,0,1.8,0.3,2.3,0.8s0.8,1.3,0.8,2.3v7.2c0,0.6-0.1,1.1-0.3,1.6l-0.5,0.8c-0.5,0.5-1.3,0.8-2.3,0.8h-3.7l-1-0.1
	c-0.5-0.1-1-0.4-1.3-0.7l-0.5-0.8c-0.2-0.4-0.3-1-0.3-1.6v-7.2c0-1,0.3-1.8,0.8-2.3C68.8,331.1,69.2,330.9,69.7,330.7"/>
<path class="st9" d="M69.7,331.9c0.3-0.1,0.6-0.2,1-0.2h3.7c1.4,0,2.1,0.7,2.1,2.1v7.2c0,0.7-0.2,1.2-0.5,1.6
	c-0.3,0.3-0.9,0.5-1.6,0.5h-3.7l-1-0.2l-0.5-0.4c-0.3-0.3-0.5-0.9-0.5-1.6v-7.2C68.7,332.8,69,332.1,69.7,331.9 M75.5,337.4h-5.8
	v3.6v0.3c0.1,0.5,0.4,0.7,1,0.7h3.7c0.7,0,1-0.3,1-1v-3.6"/>
<path class="st11" d="M75.5,337.4v3.6c0,0.7-0.3,1-1,1h-3.7c-0.6,0-0.9-0.2-1-0.7V341v-3.6H75.5"/>
<path class="st17" d="M92.1,333.7c0-1.4-0.7-2.1-2.1-2.1h-3.7c-0.4,0-0.7,0.1-1,0.2c-0.7,0.3-1.1,0.9-1.1,1.9v7.2
	c0,0.7,0.2,1.2,0.5,1.6l0.5,0.4l1,0.2H90c0.7,0,1.2-0.2,1.6-0.5c0.3-0.3,0.5-0.9,0.5-1.6V333.7 M92.3,331.5c0.5,0.5,0.8,1.3,0.8,2.3
	v7.2c0,0.6-0.1,1.1-0.3,1.6l-0.5,0.8c-0.5,0.5-1.3,0.8-2.3,0.8h-3.7l-1-0.1c-0.5-0.1-1-0.4-1.3-0.7l-0.5-0.8c-0.2-0.4-0.3-1-0.3-1.6
	v-7.2c0-1,0.3-1.8,0.8-2.3c0.3-0.4,0.7-0.6,1.3-0.7l1-0.1H90C91.1,330.6,91.8,330.9,92.3,331.5"/>
<path class="st18" d="M92.1,333.7v7.2c0,0.7-0.2,1.2-0.5,1.6c-0.3,0.3-0.9,0.5-1.6,0.5h-3.7l-1-0.2l-0.5-0.4
	c-0.3-0.3-0.5-0.9-0.5-1.6v-7.2c0-1,0.4-1.6,1.1-1.9c0.3-0.1,0.6-0.2,1-0.2H90C91.4,331.7,92.1,332.4,92.1,333.7 M86.3,342H90
	c0.7,0,1-0.3,1-1v-3.6h-5.8v3.6v0.3C85.4,341.8,85.7,342,86.3,342"/>
<path class="st19" d="M86.3,342c-0.6,0-0.9-0.2-1-0.7V341v-3.6h5.8v3.6c0,0.7-0.3,1-1,1H86.3"/>
<path class="st20" d="M100.6,362.5c-1.2-1.2-1.8-2.7-1.8-4.4c0-1.7,0.6-3.2,1.8-4.4c1.2-1.2,2.7-1.8,4.4-1.8c1.7,0,3.2,0.6,4.4,1.8
	c1.2,1.2,1.8,2.7,1.8,4.4c0,1.7-0.6,3.2-1.8,4.4l0,0c-1.2,1.2-2.7,1.8-4.4,1.8C103.3,364.4,101.8,363.8,100.6,362.5"/>
<path class="st20" d="M100.9,330.7l1-0.1h3.7c1,0,1.8,0.3,2.3,0.8s0.8,1.3,0.8,2.3v7.2c0,0.6-0.1,1.1-0.3,1.6l-0.5,0.8
	c-0.5,0.5-1.3,0.8-2.3,0.8h-3.7l-1-0.1c-0.5-0.1-1-0.4-1.3-0.7l-0.5-0.8c-0.2-0.4-0.3-1-0.3-1.6v-7.2c0-1,0.3-1.8,0.8-2.3
	C99.9,331.1,100.3,330.9,100.9,330.7"/>
<path class="st4" d="M30.9,354.5c-1-1-2.2-1.5-3.7-1.5c-1.4,0-2.7,0.5-3.7,1.5s-1.5,2.2-1.5,3.7s0.5,2.7,1.5,3.7s2.2,1.5,3.7,1.5
	c1.4,0,2.7-0.5,3.7-1.5s1.5-2.2,1.5-3.7S31.9,355.5,30.9,354.5 M31.6,353.7c1.2,1.2,1.8,2.7,1.8,4.4c0,1.7-0.6,3.2-1.8,4.4l0,0
	c-1.2,1.2-2.7,1.8-4.4,1.8c-1.7,0-3.2-0.6-4.4-1.8c-1.2-1.2-1.8-2.7-1.8-4.4c0-1.7,0.6-3.2,1.8-4.4c1.2-1.2,2.7-1.8,4.4-1.8
	C28.9,351.9,30.4,352.5,31.6,353.7"/>
<path class="st3" d="M30.9,354.5c1,1,1.5,2.2,1.5,3.7s-0.5,2.7-1.5,3.7s-2.2,1.5-3.7,1.5c-1.4,0-2.7-0.5-3.7-1.5s-1.5-2.2-1.5-3.7
	s0.5-2.7,1.5-3.7s2.2-1.5,3.7-1.5C28.6,352.9,29.9,353.4,30.9,354.5 M30.1,361.1c0.8-0.8,1.2-1.8,1.2-2.9H23c0,1.1,0.4,2.1,1.2,2.9
	c0.8,0.8,1.8,1.2,2.9,1.2C28.3,362.3,29.3,361.9,30.1,361.1"/>
<path class="st5" d="M30.1,361.1c-0.8,0.8-1.8,1.2-2.9,1.2s-2.1-0.4-2.9-1.2c-0.8-0.8-1.2-1.8-1.2-2.9h8.3
	C31.4,359.3,30.9,360.3,30.1,361.1"/>
<path class="st12" d="M49,358.1c0,1.7-0.6,3.2-1.8,4.4l0,0c-1.2,1.2-2.7,1.8-4.4,1.8s-3.2-0.6-4.4-1.8s-1.8-2.7-1.8-4.4
	c0-1.7,0.6-3.2,1.8-4.4c1.2-1.2,2.7-1.8,4.4-1.8s3.2,0.6,4.4,1.8S49,356.4,49,358.1 M46.4,354.5c-1-1-2.2-1.5-3.7-1.5
	c-1.4,0-2.7,0.5-3.7,1.5s-1.5,2.2-1.5,3.7s0.5,2.7,1.5,3.7s2.2,1.5,3.7,1.5c1.4,0,2.7-0.5,3.7-1.5s1.5-2.2,1.5-3.7
	S47.4,355.5,46.4,354.5"/>
<path class="st13" d="M46.4,354.5c1,1,1.5,2.2,1.5,3.7s-0.5,2.7-1.5,3.7s-2.2,1.5-3.7,1.5c-1.4,0-2.7-0.5-3.7-1.5s-1.5-2.2-1.5-3.7
	s0.5-2.7,1.5-3.7s2.2-1.5,3.7-1.5C44.2,352.9,45.4,353.4,46.4,354.5 M38.6,358.1c0,1.1,0.4,2.1,1.2,2.9s1.8,1.2,2.9,1.2
	c1.1,0,2.1-0.4,2.9-1.2c0.8-0.8,1.2-1.8,1.2-2.9H38.6"/>
<path class="st14" d="M38.6,358.1h8.3c0,1.1-0.4,2.1-1.2,2.9s-1.8,1.2-2.9,1.2c-1.1,0-2.1-0.4-2.9-1.2S38.6,359.3,38.6,358.1"/>
<path class="st7" d="M53.1,358.1c0-1.4,0.5-2.7,1.5-3.7s2.2-1.5,3.7-1.5c1.4,0,2.7,0.5,3.7,1.5s1.5,2.2,1.5,3.7s-0.5,2.7-1.5,3.7
	s-2.2,1.5-3.7,1.5c-1.4,0-2.7-0.5-3.7-1.5C53.6,360.8,53.1,359.6,53.1,358.1 M54.2,358.1c0,1.1,0.4,2.1,1.2,2.9s1.8,1.2,2.9,1.2
	c1.1,0,2.1-0.4,2.9-1.2c0.8-0.8,1.2-1.8,1.2-2.9H54.2"/>
<path class="st8" d="M54.2,358.1h8.3c0,1.1-0.4,2.1-1.2,2.9s-1.8,1.2-2.9,1.2c-1.1,0-2.1-0.4-2.9-1.2S54.2,359.3,54.2,358.1"/>
<path class="st6" d="M52.1,358.1c0-1.7,0.6-3.2,1.8-4.4c1.2-1.2,2.7-1.8,4.4-1.8s3.2,0.6,4.4,1.8c1.2,1.2,1.8,2.7,1.8,4.4
	c0,1.7-0.6,3.2-1.8,4.4l0,0c-1.2,1.2-2.7,1.8-4.4,1.8s-3.2-0.6-4.4-1.8C52.7,361.3,52.1,359.9,52.1,358.1 M53.1,358.1
	c0,1.4,0.5,2.7,1.5,3.7s2.2,1.5,3.7,1.5c1.4,0,2.7-0.5,3.7-1.5s1.5-2.2,1.5-3.7s-0.5-2.7-1.5-3.7s-2.2-1.5-3.7-1.5
	c-1.4,0-2.7,0.5-3.7,1.5C53.6,355.5,53.1,356.7,53.1,358.1"/>
<path class="st10" d="M78.3,353.7c1.2,1.2,1.8,2.7,1.8,4.4c0,1.7-0.6,3.2-1.8,4.4l0,0c-1.2,1.2-2.7,1.8-4.4,1.8
	c-1.7,0-3.2-0.6-4.4-1.8c-1.2-1.2-1.8-2.7-1.8-4.4c0-1.7,0.6-3.2,1.8-4.4c1.2-1.2,2.7-1.8,4.4-1.8C75.6,351.9,77.1,352.5,78.3,353.7
	 M77.6,354.5c-1-1-2.2-1.5-3.7-1.5c-1.4,0-2.7,0.5-3.7,1.5s-1.5,2.2-1.5,3.7s0.5,2.7,1.5,3.7s2.2,1.5,3.7,1.5c1.4,0,2.7-0.5,3.7-1.5
	s1.5-2.2,1.5-3.7S78.6,355.5,77.6,354.5"/>
<path class="st9" d="M77.6,354.5c1,1,1.5,2.2,1.5,3.7s-0.5,2.7-1.5,3.7s-2.2,1.5-3.7,1.5c-1.4,0-2.7-0.5-3.7-1.5s-1.5-2.2-1.5-3.7
	s0.5-2.7,1.5-3.7s2.2-1.5,3.7-1.5C75.3,352.9,76.6,353.4,77.6,354.5 M76.8,361.1c0.8-0.8,1.2-1.8,1.2-2.9h-8.3
	c0,1.1,0.4,2.1,1.2,2.9s1.8,1.2,2.9,1.2C75,362.3,76,361.9,76.8,361.1"/>
<path class="st11" d="M76.8,361.1c-0.8,0.8-1.8,1.2-2.9,1.2s-2.1-0.4-2.9-1.2s-1.2-1.8-1.2-2.9h8.3
	C78.1,359.3,77.6,360.3,76.8,361.1"/>
<path class="st17" d="M93.1,354.5c-1-1-2.2-1.5-3.7-1.5c-1.4,0-2.7,0.5-3.7,1.5s-1.5,2.2-1.5,3.7s0.5,2.7,1.5,3.7s2.2,1.5,3.7,1.5
	c1.4,0,2.7-0.5,3.7-1.5s1.5-2.2,1.5-3.7S94.1,355.5,93.1,354.5 M93.9,353.7c1.2,1.2,1.8,2.7,1.8,4.4c0,1.7-0.6,3.2-1.8,4.4l0,0
	c-1.2,1.2-2.7,1.8-4.4,1.8c-1.7,0-3.2-0.6-4.4-1.8c-1.2-1.2-1.8-2.7-1.8-4.4c0-1.7,0.6-3.2,1.8-4.4c1.2-1.2,2.7-1.8,4.4-1.8
	C91.2,351.9,92.7,352.5,93.9,353.7"/>
<path class="st18" d="M93.1,354.5c1,1,1.5,2.2,1.5,3.7s-0.5,2.7-1.5,3.7s-2.2,1.5-3.7,1.5c-1.4,0-2.7-0.5-3.7-1.5s-1.5-2.2-1.5-3.7
	s0.5-2.7,1.5-3.7s2.2-1.5,3.7-1.5C90.9,352.9,92.1,353.4,93.1,354.5 M92.4,361.1c0.8-0.8,1.2-1.8,1.2-2.9h-8.3
	c0,1.1,0.4,2.1,1.2,2.9c0.8,0.8,1.8,1.2,2.9,1.2C90.6,362.3,91.6,361.9,92.4,361.1"/>
<path class="st19" d="M92.4,361.1c-0.8,0.8-1.8,1.2-2.9,1.2s-2.1-0.4-2.9-1.2c-0.8-0.8-1.2-1.8-1.2-2.9h8.3
	C93.6,359.3,93.2,360.3,92.4,361.1"/>
<path class="st21" d="M85.2,250.2v0.3c0,1.9-0.4,3.4-1.3,4.3c-0.9,1.1-2.2,1.6-3.9,1.5h0c-1.2-0.2-2.1-0.8-2.6-1.9l-0.3-0.7
	c-3.1-0.9-5.4-2.5-7.1-4.7c-0.2-0.2-0.2-0.5-0.2-0.8c0-0.2,0.1-0.3,0.1-0.4L70,248c1.7,2.3,4,3.8,7.1,4.7l0.3,0.7
	c0.5,1.1,1.4,1.7,2.6,1.9h0.1c1.7,0.1,3-0.4,3.9-1.5C84.7,253,85.1,251.8,85.2,250.2 M71.2,245.7l-0.9-0.8c-0.2-0.1-0.3-0.3-0.4-0.5
	s-0.1-0.4,0-0.6l0.1-0.2l0.3,0.3c0.6,0.5,1.2,1,1.6,1.6h-0.1C71.6,245.5,71.4,245.6,71.2,245.7"/>
<path class="st22" d="M71.2,245.7c0.2-0.1,0.4-0.2,0.6-0.2h0.1c-0.4-0.6-1-1.2-1.6-1.6l-0.3-0.3l-0.1-0.2c-0.1-0.2-0.1-0.4,0-0.6
	c0.2-0.7,0.8-1.3,1.9-1.7h-0.1l0,0l0.5-0.1l0.5,0.2l1.6,1.2c1.6-0.2,3-0.1,4.1,0.4l0.4,0.3c0.9,1.1,1.7,2.5,2.5,4.3
	c0.9,0.5,2,1,3.2,1.3l0.5,0.4c0.1,0.2,0.2,0.4,0.2,0.6v0.8c-0.1,1.6-0.5,2.7-1.3,3.6c-0.9,1.1-2.2,1.6-3.9,1.5h0
	c-1.2-0.2-2.1-0.8-2.6-1.9l-0.3-0.7c-3.1-0.9-5.4-2.5-7.1-4.7l-0.1-0.1c-0.1-0.2-0.2-0.4-0.1-0.6c0-0.3,0.1-0.5,0.4-0.7L71.2,245.7
	L71.2,245.7 M80.1,254.3c2.7,0.1,4.1-1.5,4.1-4.8c-1.4-0.4-2.6-1-3.7-1.6c-0.8-1.8-1.6-3.2-2.5-4.3c-0.5-0.2-1.1-0.4-1.7-0.4h-0.6
	l-1.3,0.1l-0.4,0.1c-0.3-0.5-0.9-0.9-1.7-1.4l0,0c-0.7,0.3-1.2,0.6-1.3,1.1c1.5,1.2,2.5,2.6,3,4.4c-0.7-0.1-1.4-0.4-2.1-0.9l-1,0.9
	c1.6,2.2,4,3.7,7,4.5l0.5,1.1C78.7,253.7,79.3,254.2,80.1,254.3"/>
<path class="st23" d="M80.1,254.3c-0.8-0.1-1.4-0.5-1.8-1.3l-0.5-1.1c-3-0.8-5.4-2.3-7-4.5l1-0.9c0.7,0.5,1.4,0.8,2.1,0.9
	c-0.5-1.7-1.5-3.2-3-4.4c0.2-0.4,0.6-0.8,1.3-1.1l0,0c0.8,0.5,1.3,1,1.7,1.4l0.4-0.1l1.3-0.1h0.6c0.6,0,1.2,0.2,1.7,0.4
	c0.9,1.1,1.7,2.5,2.5,4.3c1.1,0.6,2.3,1.2,3.7,1.6C84.2,252.7,82.8,254.4,80.1,254.3"/>
<path class="st24" d="M94.6,242.4c0.3,0,0.5,0.1,0.7,0.3l8.2,7.4l0.3,0.5v0.6l-0.4,0.5l-0.6,0.2h-4.3l-3.2,2.5
	c-0.2,0.2-0.5,0.2-0.7,0.2c-0.3,0-0.5-0.1-0.7-0.3s-0.3-0.4-0.3-0.7v-10.1c0-0.3,0.1-0.5,0.3-0.7C94.1,242.5,94.4,242.4,94.6,242.4
	 M94.7,253.6l3.5-2.7h4.7l-8.2-7.4V253.6"/>
<path class="st18" d="M94.7,253.6v-10.1l8.2,7.4h-4.7L94.7,253.6"/>
<path class="st24" d="M109.2,253.7v-10.2c0-0.3,0.1-0.5,0.3-0.7c0.2-0.2,0.4-0.3,0.7-0.3c0.3,0,0.5,0.1,0.7,0.3l8.2,7.4l0.3,0.5v0.6
	l-0.3,0.4l-0.1,0.1l-0.6,0.2h-4.3l-3.2,2.5c-0.2,0.2-0.5,0.2-0.7,0.2c-0.3,0-0.5-0.1-0.7-0.3C109.3,254.1,109.2,253.9,109.2,253.7
	 M113.7,250.9h4.7l-8.2-7.4v10.1L113.7,250.9"/>
<path class="st20" d="M119.1,251.7l0.3,0.5v0.6l-0.4,0.5l-0.6,0.2h-4.3l-3.2,2.5c-0.2,0.2-0.5,0.2-0.7,0.2c-0.3,0-0.5-0.1-0.7-0.3
	s-0.3-0.4-0.3-0.7v-1.5c0,0.2,0.1,0.4,0.3,0.6c0.2,0.2,0.4,0.3,0.7,0.3c0.3,0,0.5-0.1,0.7-0.2l3.2-2.5h4.3L119.1,251.7L119.1,251.7"
	/>
<path class="st18" d="M113.7,250.9l-3.5,2.7v-10.1l8.2,7.4L113.7,250.9"/>
<path class="st24" d="M94.7,264.2v10.1l3.5-2.7h4.7L94.7,264.2 M95.4,263.5l8.2,7.4l0.3,0.5v0.6l-0.4,0.5l-0.6,0.2h-4.3l-3.2,2.5
	c-0.2,0.2-0.5,0.2-0.7,0.2c-0.3,0-0.5-0.1-0.7-0.3c-0.2-0.2-0.3-0.4-0.3-0.7v-10.1c0-0.3,0.1-0.5,0.3-0.7c0.2-0.2,0.4-0.3,0.7-0.3
	C94.9,263.2,95.1,263.3,95.4,263.5"/>
<path class="st25" d="M98.2,271.6l-3.5,2.7v-10.1L98.2,271.6"/>
<path class="st18" d="M94.7,264.2l8.2,7.4h-4.7L94.7,264.2"/>
<path class="st24" d="M109.2,274.4v-10.2c0-0.3,0.1-0.5,0.3-0.7c0.2-0.2,0.4-0.3,0.7-0.3c0.3,0,0.5,0.1,0.7,0.3l8.2,7.4l0.3,0.5v0.6
	l-0.3,0.4l-0.1,0.1l-0.6,0.2h-4.3l-3.2,2.5c-0.2,0.2-0.5,0.2-0.7,0.2c-0.3,0-0.5-0.1-0.7-0.3C109.3,274.8,109.2,274.7,109.2,274.4
	 M110.2,264.2v10.1l3.5-2.7h4.7L110.2,264.2"/>
<path class="st20" d="M119.1,272.4l0.3,0.5v0.6L119,274l-0.6,0.2h-4.3l-3.2,2.5c-0.2,0.2-0.5,0.2-0.7,0.2c-0.3,0-0.5-0.1-0.7-0.3
	c-0.2-0.2-0.3-0.4-0.3-0.7v-1.5c0,0.2,0.1,0.4,0.3,0.6c0.2,0.2,0.4,0.3,0.7,0.3c0.3,0,0.5-0.1,0.7-0.2l3.2-2.5h4.3L119.1,272.4
	L119.1,272.4"/>
<path class="st25" d="M113.7,271.6l-3.5,2.7v-10.1L113.7,271.6"/>
<path class="st18" d="M113.7,271.6l-3.5-7.4l8.2,7.4H113.7"/>
<path class="st26" d="M143.9,245.5V243c-1.2,0.1-2.2,0.6-3.1,1.5l0,0c-0.9,0.9-1.4,1.9-1.5,3.1h2.6v1h-2.6c0.1,1.2,0.6,2.3,1.5,3.2
	s1.9,1.4,3.1,1.5v-2.6h1v2.6l1.2-0.2c0.7-0.3,1.4-0.7,2-1.2c0.9-0.9,1.4-1.9,1.5-3.2H147v-1h2.6c-0.1-1.2-0.6-2.3-1.5-3.1
	c-0.6-0.6-1.2-1-2-1.2L145,243v2.6h-1.1 M146.5,242.2L146.5,242.2c0.8,0.3,1.6,0.8,2.4,1.5c1.1,1.1,1.7,2.4,1.8,3.9h1.8v1h-1.8
	c-0.1,1.5-0.7,2.8-1.8,3.9l0,0c-0.7,0.7-1.5,1.2-2.4,1.5l0,0l-1.5,0.3v1.8h-1v-1.8c-1.5-0.1-2.8-0.7-3.9-1.8
	c-1.1-1.1-1.7-2.4-1.8-3.9h-1.8v-1h1.8c0.1-1.5,0.7-2.8,1.8-3.9c1.1-1.1,2.4-1.7,3.9-1.8v-1.8h1v1.8L146.5,242.2"/>
<path class="st27" d="M169.9,267.9V266h1v1.8l1.6,0.3l0,0c0.9,0.3,1.7,0.8,2.4,1.5c1.1,1.1,1.7,2.4,1.8,3.9h1.8v1h-1.8
	c-0.1,1.5-0.7,2.8-1.8,3.9l0,0c-0.7,0.7-1.5,1.2-2.4,1.5l0,0l-1.5,0.3v1.8h-1v-1.8c-1.5-0.1-2.8-0.7-3.9-1.8
	c-1.1-1.1-1.7-2.4-1.8-3.9h-1.8v-1h1.8c0.1-1.5,0.7-2.8,1.8-3.9C167.1,268.6,168.4,268,169.9,267.9 M166.7,270.4L166.7,270.4
	c-0.9,0.9-1.4,1.9-1.5,3.1h2.6v1h-2.6c0.1,1.2,0.6,2.3,1.5,3.2c0.9,0.9,1.9,1.4,3.1,1.5v-2.6h1v2.6l1.2-0.2c0.7-0.3,1.4-0.7,2-1.2
	c0.9-0.9,1.4-1.9,1.5-3.2H173v-1h2.6c-0.1-1.2-0.6-2.3-1.5-3.1c-0.6-0.6-1.2-1-2-1.2l-1.2-0.3v2.6h-1V269
	C168.7,269,167.6,269.5,166.7,270.4"/>
<path class="st5" d="M172.5,242.2L172.5,242.2c0.8,0.3,1.6,0.8,2.4,1.5c1.1,1.1,1.7,2.4,1.8,3.9h1.8v1h-1.8
	c-0.1,1.5-0.7,2.8-1.8,3.9l0,0c-0.7,0.7-1.5,1.2-2.4,1.5l0,0l-1.5,0.3v1.8h-1v-1.8c-1.5-0.1-2.8-0.7-3.9-1.8
	c-1.1-1.1-1.7-2.4-1.8-3.9h-1.8v-1h1.8c0.1-1.5,0.7-2.8,1.8-3.9c1.1-1.1,2.4-1.7,3.9-1.8v-1.8h1v1.8L172.5,242.2 M166.7,244.5
	L166.7,244.5c-0.9,0.9-1.4,1.9-1.5,3.1h2.6v1h-2.6c0.1,1.2,0.6,2.3,1.5,3.2s1.9,1.4,3.1,1.5v-2.6h1v2.6l1.2-0.2
	c0.7-0.3,1.4-0.7,2-1.2c0.9-0.9,1.4-1.9,1.5-3.2H173v-1h2.6c-0.1-1.2-0.6-2.3-1.5-3.1c-0.6-0.6-1.2-1-2-1.2l-1.2-0.3v2.6h-1V243
	C168.7,243.1,167.6,243.6,166.7,244.5"/>
<path class="st18" d="M143.9,266h1v1.8l1.6,0.3l0,0c0.9,0.3,1.7,0.8,2.4,1.5c1.1,1.1,1.7,2.4,1.8,3.9h1.8v1h-1.8
	c-0.1,1.5-0.7,2.8-1.8,3.9l0,0c-0.7,0.7-1.5,1.2-2.4,1.5l0,0l-1.5,0.3v1.8h-1v-1.8c-1.5-0.1-2.8-0.7-3.9-1.8
	c-1.1-1.1-1.7-2.4-1.8-3.9h-1.8v-1h1.8c0.1-1.5,0.7-2.8,1.8-3.9s2.4-1.7,3.9-1.8V266 M140.8,270.4L140.8,270.4
	c-0.9,0.9-1.4,1.9-1.5,3.1h2.6v1h-2.6c0.1,1.2,0.6,2.3,1.5,3.2c0.9,0.9,1.9,1.4,3.1,1.5v-2.6h1v2.6l1.2-0.2c0.7-0.3,1.4-0.7,2-1.2
	c0.9-0.9,1.4-1.9,1.5-3.2H147v-1h2.6c-0.1-1.2-0.6-2.3-1.5-3.1c-0.6-0.6-1.2-1-2-1.2l-1.2-0.3v2.6h-1V269
	C142.8,269,141.7,269.5,140.8,270.4"/>
<path class="st28" d="M222.8,265c0.3,0,0.5,0.1,0.8,0.3c0.2,0.2,0.3,0.4,0.3,0.7v0.9l0.9,0.2l0.2,0.1c0.9,0.3,1.8,0.9,2.6,1.7
	c1,1,1.7,2.2,1.9,3.6h0.9c0.3,0,0.5,0.1,0.8,0.3c0.2,0.2,0.3,0.4,0.3,0.7v1c0,0.3-0.1,0.5-0.3,0.8c-0.2,0.2-0.5,0.3-0.8,0.3h-0.9
	c-0.3,1.3-0.9,2.5-1.9,3.5l-0.1,0.1c-0.8,0.8-1.7,1.4-2.7,1.7l-0.2,0.1l-0.7,0.2v0.9c0,0.3-0.1,0.5-0.3,0.8
	c-0.2,0.2-0.5,0.3-0.8,0.3h-1c-0.3,0-0.5-0.1-0.7-0.3c-0.2-0.2-0.3-0.5-0.3-0.8v-0.9c-1.3-0.3-2.5-0.9-3.6-1.9
	c-1.1-1.1-1.7-2.3-2-3.6h-0.9c-0.3,0-0.5-0.1-0.7-0.3c-0.2-0.2-0.3-0.5-0.3-0.8v-1c0-0.3,0.1-0.5,0.3-0.7s0.4-0.3,0.7-0.3h0.9
	c0.3-1.3,0.9-2.5,2-3.6c1-1.1,2.2-1.7,3.6-2v-1c0-0.3,0.1-0.5,0.3-0.7s0.4-0.3,0.7-0.3H222.8 M218.6,270.4c0.9-0.9,1.9-1.4,3.1-1.5
	v2.6h1v-2.6l1.2,0.3c0.7,0.2,1.4,0.7,2,1.2c0.9,0.9,1.4,1.9,1.5,3.1h-2.6v1h2.6c-0.1,1.2-0.6,2.3-1.5,3.2c-0.6,0.6-1.3,1-2,1.2
	l-1.2,0.2v-2.6h-1v2.6c-1.2-0.1-2.2-0.6-3.1-1.5c-0.9-0.9-1.4-1.9-1.5-3.2h2.6v-1h-2.6C217.2,272.3,217.7,271.3,218.6,270.4
	L218.6,270.4 M224.4,268.2l-1.6-0.3V266h-1v1.8c-1.5,0.1-2.8,0.7-3.9,1.8c-1.1,1.1-1.7,2.4-1.8,3.9h-1.8v1h1.8
	c0.1,1.5,0.7,2.8,1.8,3.9s2.4,1.7,3.9,1.8v1.8h1v-1.8l1.5-0.3l0,0c0.9-0.3,1.7-0.8,2.4-1.5l0,0c1.1-1.1,1.7-2.4,1.8-3.9h1.8v-1h-1.8
	c-0.1-1.5-0.7-2.8-1.8-3.9C226,269,225.2,268.5,224.4,268.2L224.4,268.2"/>
<path class="st27" d="M224.4,268.2L224.4,268.2c0.8,0.3,1.6,0.8,2.4,1.5c1.1,1.1,1.7,2.4,1.8,3.9h1.8v1h-1.8
	c-0.1,1.5-0.7,2.8-1.8,3.9l0,0c-0.7,0.7-1.5,1.2-2.4,1.5l0,0l-1.5,0.3v1.8h-1v-1.8c-1.5-0.1-2.8-0.7-3.9-1.8
	c-1.1-1.1-1.7-2.4-1.8-3.9h-1.8v-1h1.8c0.1-1.5,0.7-2.8,1.8-3.9s2.4-1.7,3.9-1.8V266h1v1.8L224.4,268.2 M218.6,270.4L218.6,270.4
	c-0.9,0.9-1.4,1.9-1.5,3.1h2.6v1h-2.6c0.1,1.2,0.6,2.3,1.5,3.2c0.9,0.9,1.9,1.4,3.1,1.5v-2.6h1v2.6l1.2-0.2c0.7-0.3,1.4-0.7,2-1.2
	c0.9-0.9,1.4-1.9,1.5-3.2h-2.6v-1h2.6c-0.1-1.2-0.6-2.3-1.5-3.1c-0.6-0.6-1.2-1-2-1.2l-1.2-0.3v2.6h-1V269
	C220.6,269,219.5,269.5,218.6,270.4"/>
<path class="st4" d="M218.6,244.5c0.9-0.9,1.9-1.4,3.1-1.5v2.6h1V243l1.2,0.3c0.7,0.2,1.4,0.7,2,1.2c0.9,0.9,1.4,1.9,1.5,3.1h-2.6v1
	h2.6c-0.1,1.2-0.6,2.3-1.5,3.2c-0.6,0.6-1.3,1-2,1.2l-1.2,0.2v-2.6h-1v2.6c-1.2-0.1-2.2-0.6-3.1-1.5s-1.4-1.9-1.5-3.2h2.6v-1h-2.6
	C217.2,246.4,217.7,245.4,218.6,244.5L218.6,244.5 M222.8,239.1c0.3,0,0.5,0.1,0.8,0.3c0.2,0.2,0.3,0.4,0.3,0.7v0.9l0.9,0.2l0.2,0.1
	c0.9,0.3,1.8,0.9,2.6,1.7c1,1,1.7,2.2,1.9,3.6h0.9c0.3,0,0.5,0.1,0.8,0.3c0.2,0.2,0.3,0.4,0.3,0.7v1c0,0.3-0.1,0.5-0.3,0.8
	c-0.2,0.2-0.5,0.3-0.8,0.3h-0.9c-0.3,1.3-0.9,2.5-1.9,3.5l-0.1,0.1c-0.8,0.8-1.7,1.4-2.7,1.7l-0.2,0.1l-0.7,0.2v0.9
	c0,0.3-0.1,0.5-0.3,0.8c-0.2,0.2-0.5,0.3-0.8,0.3h-1c-0.3,0-0.5-0.1-0.7-0.3c-0.2-0.2-0.3-0.5-0.3-0.8v-0.9
	c-1.3-0.3-2.5-0.9-3.6-1.9c-1.1-1.1-1.7-2.3-2-3.6h-0.9c-0.3,0-0.5-0.1-0.7-0.3s-0.3-0.5-0.3-0.8v-1c0-0.3,0.1-0.5,0.3-0.7
	s0.4-0.3,0.7-0.3h0.9c0.3-1.3,0.9-2.5,2-3.6c1-1.1,2.2-1.7,3.6-2v-0.9c0-0.3,0.1-0.5,0.3-0.7s0.4-0.3,0.7-0.3h1 M224.4,242.2
	l-1.6-0.3v-1.8h-1v1.8c-1.5,0.1-2.8,0.7-3.9,1.8c-1.1,1.1-1.7,2.4-1.8,3.9h-1.8v1h1.8c0.1,1.5,0.7,2.8,1.8,3.9
	c1.1,1.1,2.4,1.7,3.9,1.8v1.8h1v-1.8l1.5-0.3l0,0c0.9-0.3,1.7-0.8,2.4-1.5l0,0c1.1-1.1,1.7-2.4,1.8-3.9h1.8v-1h-1.8
	c-0.1-1.5-0.7-2.8-1.8-3.9C226,243,225.2,242.5,224.4,242.2L224.4,242.2"/>
<path class="st3" d="M224.4,242.2L224.4,242.2c0.8,0.3,1.6,0.8,2.4,1.5c1.1,1.1,1.7,2.4,1.8,3.9h1.8v1h-1.8
	c-0.1,1.5-0.7,2.8-1.8,3.9l0,0c-0.7,0.7-1.5,1.2-2.4,1.5l0,0l-1.5,0.3v1.8h-1v-1.8c-1.5-0.1-2.8-0.7-3.9-1.8
	c-1.1-1.1-1.7-2.4-1.8-3.9h-1.8v-1h1.8c0.1-1.5,0.7-2.8,1.8-3.9c1.1-1.1,2.4-1.7,3.9-1.8v-1.8h1v1.8L224.4,242.2 M218.6,244.5
	L218.6,244.5c-0.9,0.9-1.4,1.9-1.5,3.1h2.6v1h-2.6c0.1,1.2,0.6,2.3,1.5,3.2s1.9,1.4,3.1,1.5v-2.6h1v2.6l1.2-0.2
	c0.7-0.3,1.4-0.7,2-1.2c0.9-0.9,1.4-1.9,1.5-3.2h-2.6v-1h2.6c-0.1-1.2-0.6-2.3-1.5-3.1c-0.6-0.6-1.2-1-2-1.2l-1.2-0.3v2.6h-1V243
	C220.6,243.1,219.5,243.6,218.6,244.5"/>
<path class="st29" d="M192.7,244.5L192.7,244.5c-0.9,0.9-1.4,1.9-1.5,3.1h2.6v1h-2.6c0.1,1.2,0.6,2.3,1.5,3.2s1.9,1.4,3.1,1.5v-2.6
	h1v2.6l1.2-0.2c0.7-0.3,1.4-0.7,2-1.2c0.9-0.9,1.4-1.9,1.5-3.2h-2.6v-1h2.6c-0.1-1.2-0.6-2.3-1.5-3.1c-0.6-0.6-1.2-1-2-1.2l-1.2-0.3
	v2.6h-1V243C194.6,243.1,193.6,243.6,192.7,244.5 M196.9,240.1v1.8l1.6,0.3l0,0c0.9,0.3,1.7,0.8,2.4,1.5c1.1,1.1,1.7,2.4,1.8,3.9
	h1.8v1h-1.8c-0.1,1.5-0.7,2.8-1.8,3.9l0,0c-0.7,0.7-1.5,1.2-2.4,1.5l0,0l-1.5,0.3v1.8h-1v-1.8c-1.5-0.1-2.8-0.7-3.9-1.8
	c-1.1-1.1-1.7-2.4-1.8-3.9h-1.8v-1h1.8c0.1-1.5,0.7-2.8,1.8-3.9c1.1-1.1,2.4-1.7,3.9-1.8v-1.8H196.9"/>
<path class="st30" d="M196.9,240.1h-1v1.8c-1.5,0.1-2.8,0.7-3.9,1.8c-1.1,1.1-1.7,2.4-1.8,3.9h-1.8v1h1.8c0.1,1.5,0.7,2.8,1.8,3.9
	c1.1,1.1,2.4,1.7,3.9,1.8v1.8h1v-1.8l1.5-0.3l0,0c0.9-0.3,1.7-0.8,2.4-1.5l0,0c1.1-1.1,1.7-2.4,1.8-3.9h1.8v-1h-1.8
	c-0.1-1.5-0.7-2.8-1.8-3.9c-0.7-0.7-1.5-1.2-2.4-1.5l0,0l-1.6-0.3v-1.8 M192.7,244.5c0.9-0.9,1.9-1.4,3.1-1.5v2.6h1V243l1.2,0.3
	c0.7,0.2,1.4,0.7,2,1.2c0.9,0.9,1.4,1.9,1.5,3.1h-2.6v1h2.6c-0.1,1.2-0.6,2.3-1.5,3.2c-0.6,0.6-1.3,1-2,1.2l-1.2,0.2v-2.6h-1v2.6
	c-1.2-0.1-2.2-0.6-3.1-1.5c-0.9-0.9-1.4-1.9-1.5-3.2h2.6v-1h-2.6C191.3,246.4,191.8,245.4,192.7,244.5L192.7,244.5 M196.9,239.1
	c0.3,0,0.5,0.1,0.8,0.3c0.2,0.2,0.3,0.4,0.3,0.7v0.9l0.9,0.2l0.2,0.1c0.9,0.3,1.8,0.9,2.6,1.7c1,1,1.7,2.2,1.9,3.6h0.9
	c0.3,0,0.5,0.1,0.8,0.3c0.2,0.2,0.3,0.4,0.3,0.7v1c0,0.3-0.1,0.5-0.3,0.8c-0.2,0.2-0.5,0.3-0.8,0.3h-0.9c-0.3,1.3-0.9,2.5-1.9,3.5
	l-0.1,0.1c-0.8,0.8-1.7,1.4-2.7,1.7l-0.2,0.1l-0.7,0.2v0.9c0,0.3-0.1,0.5-0.3,0.8c-0.2,0.2-0.5,0.3-0.8,0.3h-1
	c-0.3,0-0.5-0.1-0.7-0.3c-0.2-0.2-0.3-0.5-0.3-0.8v-0.9c-1.3-0.3-2.5-0.9-3.6-1.9c-1.1-1.1-1.7-2.3-2-3.6h-0.9
	c-0.3,0-0.5-0.1-0.7-0.3s-0.3-0.5-0.3-0.8v-1c0-0.3,0.1-0.5,0.3-0.7s0.4-0.3,0.7-0.3h0.9c0.3-1.3,0.9-2.5,2-3.6c1-1.1,2.2-1.7,3.6-2
	v-0.9c0-0.3,0.1-0.5,0.3-0.7s0.4-0.3,0.7-0.3h1"/>
<path class="st18" d="M198.4,268.2L198.4,268.2c0.8,0.3,1.6,0.8,2.4,1.5c1.1,1.1,1.7,2.4,1.8,3.9h1.8v1h-1.8
	c-0.1,1.5-0.7,2.8-1.8,3.9l0,0c-0.7,0.7-1.5,1.2-2.4,1.5l0,0l-1.5,0.3v1.8h-1v-1.8c-1.5-0.1-2.8-0.7-3.9-1.8
	c-1.1-1.1-1.7-2.4-1.8-3.9h-1.8v-1h1.8c0.1-1.5,0.7-2.8,1.8-3.9s2.4-1.7,3.9-1.8V266h1v1.8L198.4,268.2 M192.7,270.4L192.7,270.4
	c-0.9,0.9-1.4,1.9-1.5,3.1h2.6v1h-2.6c0.1,1.2,0.6,2.3,1.5,3.2c0.9,0.9,1.9,1.4,3.1,1.5v-2.6h1v2.6l1.2-0.2c0.7-0.3,1.4-0.7,2-1.2
	c0.9-0.9,1.4-1.9,1.5-3.2h-2.6v-1h2.6c-0.1-1.2-0.6-2.3-1.5-3.1c-0.6-0.6-1.2-1-2-1.2l-1.2-0.3v2.6h-1V269
	C194.6,269,193.6,269.5,192.7,270.4"/>
<path class="st31" d="M192.7,270.4c0.9-0.9,1.9-1.4,3.1-1.5v2.6h1v-2.6l1.2,0.3c0.7,0.2,1.4,0.7,2,1.2c0.9,0.9,1.4,1.9,1.5,3.1h-2.6
	v1h2.6c-0.1,1.2-0.6,2.3-1.5,3.2c-0.6,0.6-1.3,1-2,1.2l-1.2,0.2v-2.6h-1v2.6c-1.2-0.1-2.2-0.6-3.1-1.5c-0.9-0.9-1.4-1.9-1.5-3.2h2.6
	v-1h-2.6C191.3,272.3,191.8,271.3,192.7,270.4L192.7,270.4 M196.9,265c0.3,0,0.5,0.1,0.8,0.3c0.2,0.2,0.3,0.4,0.3,0.7v0.9l0.9,0.2
	l0.2,0.1c0.9,0.3,1.8,0.9,2.6,1.7c1,1,1.7,2.2,1.9,3.6h0.9c0.3,0,0.5,0.1,0.8,0.3c0.2,0.2,0.3,0.4,0.3,0.7v1c0,0.3-0.1,0.5-0.3,0.8
	c-0.2,0.2-0.5,0.3-0.8,0.3h-0.9c-0.3,1.3-0.9,2.5-1.9,3.5l-0.1,0.1c-0.8,0.8-1.7,1.4-2.7,1.7l-0.2,0.1l-0.7,0.2v0.9
	c0,0.3-0.1,0.5-0.3,0.8c-0.2,0.2-0.5,0.3-0.8,0.3h-1c-0.3,0-0.5-0.1-0.7-0.3c-0.2-0.2-0.3-0.5-0.3-0.8v-0.9
	c-1.3-0.3-2.5-0.9-3.6-1.9c-1.1-1.1-1.7-2.3-2-3.6h-0.9c-0.3,0-0.5-0.1-0.7-0.3c-0.2-0.2-0.3-0.5-0.3-0.8v-1c0-0.3,0.1-0.5,0.3-0.7
	s0.4-0.3,0.7-0.3h0.9c0.3-1.3,0.9-2.5,2-3.6c1-1.1,2.2-1.7,3.6-2v-1c0-0.3,0.1-0.5,0.3-0.7s0.4-0.3,0.7-0.3H196.9 M198.4,268.2
	l-1.6-0.3V266h-1v1.8c-1.5,0.1-2.8,0.7-3.9,1.8c-1.1,1.1-1.7,2.4-1.8,3.9h-1.8v1h1.8c0.1,1.5,0.7,2.8,1.8,3.9s2.4,1.7,3.9,1.8v1.8h1
	v-1.8l1.5-0.3l0,0c0.9-0.3,1.7-0.8,2.4-1.5l0,0c1.1-1.1,1.7-2.4,1.8-3.9h1.8v-1h-1.8c-0.1-1.5-0.7-2.8-1.8-3.9
	C200.1,269,199.3,268.5,198.4,268.2L198.4,268.2"/>
<path class="st3" d="M42.7,206.6v-5.7c1.4,0,2.1,0.7,2.1,2.1v7.2c0,0.7-0.2,1.2-0.5,1.6l-0.4,0.3l-1.1,0.2v-1c0.7,0,1-0.3,1-1v-3.6
	h-1.1"/>
<path class="st5" d="M42.7,206.6h1v3.6c0,0.7-0.3,1-1,1V206.6"/>
<path class="st4" d="M42.7,200.9v-1c1,0,1.8,0.3,2.3,0.8s0.8,1.3,0.8,2.3v7.2c0,0.6-0.1,1.1-0.3,1.6l-0.5,0.8l-0.3,0.3
	c-0.5,0.4-1.2,0.5-2,0.5v-1l1.1-0.2l0.4-0.3c0.3-0.3,0.5-0.9,0.5-1.6V203C44.8,201.6,44.1,200.9,42.7,200.9"/>
<path class="st4" d="M37.6,212.3v1h-8.3v-1H37.6 M29.3,200.9v-1h8.3v1H29.3"/>
<path class="st3" d="M29.3,200.9h8.3v5.7h-8.3V200.9 M37.6,211.3v1h-8.3v-1H37.6"/>
<path class="st5" d="M37.6,211.3h-8.3v-4.6h8.3V211.3"/>
<path class="st20" d="M23.1,303.8l1-0.1v13.5l-1-0.1c-0.5-0.1-1-0.4-1.3-0.7l-0.5-0.8c-0.2-0.4-0.3-1-0.3-1.6v-7.2
	c0-1,0.3-1.8,0.8-2.3C22.1,304.1,22.5,303.9,23.1,303.8"/>
<path class="st20" d="M37.6,317.1h-8.3v-13.5h8.3V317.1"/>
<path class="st20" d="M44.8,316.6c-0.5,0.4-1.2,0.5-2,0.5v-13.5c1,0,1.8,0.3,2.3,0.8s0.8,1.3,0.8,2.3v7.2c0,0.6-0.1,1.1-0.3,1.6
	l-0.5,0.8L44.8,316.6"/>
<path class="st5" d="M24.1,211.3c-0.6,0-0.9-0.2-1-0.7v-0.3v-3.6h1V211.3"/>
<path class="st3" d="M24.1,211.3v1l-1-0.2l-0.5-0.4c-0.3-0.3-0.5-0.9-0.5-1.6V203c0-1,0.4-1.6,1.1-1.9l1-0.2v5.7h-1v3.6v0.3
	C23.1,211,23.5,211.3,24.1,211.3"/>
<path class="st4" d="M24.1,200.9l-1,0.2c-0.7,0.3-1.1,0.9-1.1,1.9v7.2c0,0.7,0.2,1.2,0.5,1.6l0.5,0.4l1,0.2v1l-1-0.1
	c-0.5-0.1-1-0.4-1.3-0.7l-0.5-0.8c-0.2-0.4-0.3-1-0.3-1.6V203c0-1,0.3-1.8,0.8-2.3c0.3-0.4,0.7-0.6,1.3-0.7l1-0.1v1"/>
<path class="st12" d="M24.1,233.1v1l-1-0.1c-0.5-0.1-1-0.4-1.3-0.7l-0.5-0.8c-0.2-0.4-0.3-1-0.3-1.6v-7.2c0-1,0.3-1.8,0.8-2.3
	c0.3-0.4,0.7-0.6,1.3-0.7l1-0.1v1l-1,0.2c-0.7,0.3-1.1,0.9-1.1,1.9v7.2c0,0.7,0.2,1.2,0.5,1.6l0.5,0.4L24.1,233.1"/>
<path class="st13" d="M24.1,233.1l-1-0.2l-0.5-0.4c-0.3-0.3-0.5-0.9-0.5-1.6v-7.2c0-1,0.4-1.6,1.1-1.9l1-0.2v5.7h-1v3.6v0.3
	c0.1,0.5,0.4,0.7,1,0.7v1.2"/>
<path class="st14" d="M24.1,227.4v4.6c-0.6,0-0.9-0.2-1-0.7V231v-3.6H24.1"/>
<path class="st13" d="M37.6,221.7v5.7h-8.3v-5.7H37.6 M37.6,232v1h-8.3v-1H37.6"/>
<path class="st14" d="M37.6,232h-8.3v-4.6h8.3V232"/>
<path class="st12" d="M29.3,221.7v-1h8.3v1H29.3 M37.6,233.1v1h-8.3v-1H37.6"/>
<path class="st12" d="M42.7,233.1l1.1-0.2l0.4-0.3c0.3-0.3,0.5-0.9,0.5-1.6v-7.2c0-1.4-0.7-2.1-2.1-2.1v-1c1,0,1.8,0.3,2.3,0.8
	s0.8,1.3,0.8,2.3v7.2c0,0.6-0.1,1.1-0.3,1.6l-0.5,0.8l-0.3,0.3c-0.5,0.4-1.2,0.5-2,0.5L42.7,233.1"/>
<path class="st13" d="M42.7,233.1v-1c0.7,0,1-0.3,1-1v-3.6h-1v-5.7c1.4,0,2.1,0.7,2.1,2.1v7.2c0,0.7-0.2,1.2-0.5,1.6l-0.4,0.3
	L42.7,233.1"/>
<path class="st14" d="M42.7,227.4h1v3.6c0,0.7-0.3,1-1,1V227.4"/>
<path class="st6" d="M24.1,242.4l-1,0.2c-0.7,0.3-1.1,0.9-1.1,1.9v7.2c0,0.7,0.2,1.2,0.5,1.6l0.5,0.4l1,0.2v1l-1-0.1
	c-0.5-0.1-1-0.4-1.3-0.7l-0.5-0.8c-0.2-0.4-0.3-1-0.3-1.6v-7.2c0-1,0.3-1.8,0.8-2.3c0.3-0.4,0.7-0.6,1.3-0.7l1-0.1v1"/>
<path class="st7" d="M24.1,242.4v5.7h-1v3.6v0.3c0.1,0.5,0.4,0.7,1,0.7v1l-1-0.2l-0.5-0.4c-0.3-0.3-0.5-0.9-0.5-1.6v-7.2
	c0-1,0.4-1.6,1.1-1.9L24.1,242.4"/>
<path class="st8" d="M24.1,252.8c-0.6,0-0.9-0.2-1-0.7v-0.3v-3.6h1V252.8"/>
<path class="st6" d="M29.3,242.4v-1h8.3v1H29.3 M37.6,253.8v1h-8.3v-1H37.6"/>
<path class="st8" d="M37.6,248.1v4.6h-8.3v-4.6H37.6"/>
<path class="st7" d="M37.6,248.1h-8.3v-5.7h8.3V248.1 M37.6,252.8v1h-8.3v-1H37.6"/>
<path class="st6" d="M42.7,242.4v-1c1,0,1.8,0.3,2.3,0.8s0.8,1.3,0.8,2.3v7.2c0,0.6-0.1,1.1-0.3,1.6l-0.5,0.8l-0.3,0.3
	c-0.5,0.4-1.2,0.5-2,0.5v-1l1.1-0.2l0.4-0.3c0.3-0.3,0.5-0.9,0.5-1.6v-7.2C44.8,243.1,44.1,242.4,42.7,242.4"/>
<path class="st7" d="M42.7,242.4c1.4,0,2.1,0.7,2.1,2.1v7.2c0,0.7-0.2,1.2-0.5,1.6l-0.4,0.3l-1.1,0.2v-1c0.7,0,1-0.3,1-1v-3.6h-1
	L42.7,242.4"/>
<path class="st8" d="M42.7,252.8v-4.6h1v3.6C43.8,252.4,43.4,252.8,42.7,252.8"/>
<path class="st10" d="M42.7,263.2v-1c1,0,1.8,0.3,2.3,0.8s0.8,1.3,0.8,2.3v7.2c0,0.6-0.1,1.1-0.3,1.6l-0.5,0.8l-0.3,0.3
	c-0.5,0.4-1.2,0.5-2,0.5v-1l1.1-0.2l0.4-0.3c0.3-0.3,0.5-0.9,0.5-1.6v-7.2C44.8,263.9,44.1,263.2,42.7,263.2"/>
<path class="st9" d="M42.7,274.6v-1c0.7,0,1-0.3,1-1V269h-1v-5.7c1.4,0,2.1,0.7,2.1,2.1v7.2c0,0.7-0.2,1.2-0.5,1.6l-0.4,0.3
	L42.7,274.6"/>
<path class="st11" d="M42.7,273.5v-4.6h1v3.6C43.8,273.2,43.4,273.5,42.7,273.5"/>
<path class="st10" d="M29.3,263.2v-1h8.3v1H29.3 M37.6,274.6v1h-8.3v-1H37.6"/>
<path class="st9" d="M37.6,274.6h-8.3v-1h8.3V274.6 M29.3,268.9v-5.7h8.3v5.7H29.3"/>
<path class="st11" d="M29.3,268.9h8.3v4.6h-8.3V268.9"/>
<path class="st10" d="M24.1,274.6v1l-1-0.1c-0.5-0.1-1-0.4-1.3-0.7l-0.5-0.8c-0.2-0.4-0.3-1-0.3-1.6v-7.2c0-1,0.3-1.8,0.8-2.3
	c0.3-0.4,0.7-0.6,1.3-0.7l1-0.1v1l-1,0.2c-0.7,0.3-1.1,0.9-1.1,1.9v7.2c0,0.7,0.2,1.2,0.5,1.6l0.5,0.4L24.1,274.6"/>
<path class="st9" d="M24.1,274.6l-1-0.2l-0.5-0.4c-0.3-0.3-0.5-0.9-0.5-1.6v-7.2c0-1,0.4-1.6,1.1-1.9l1-0.2v5.7h-1v3.6v0.3
	c0.1,0.5,0.4,0.7,1,0.7v1.2"/>
<path class="st11" d="M24.1,268.9v4.6c-0.6,0-0.9-0.2-1-0.7v-0.3v-3.6H24.1"/>
<path class="st17" d="M24.1,283.9l-1,0.2c-0.7,0.3-1.1,0.9-1.1,1.9v7.2c0,0.7,0.2,1.2,0.5,1.6l0.5,0.4l1,0.2v1l-1-0.1
	c-0.5-0.1-1-0.4-1.3-0.7l-0.5-0.8c-0.2-0.4-0.3-1-0.3-1.6V286c0-1,0.3-1.8,0.8-2.3c0.3-0.4,0.7-0.6,1.3-0.7l1-0.1v1"/>
<path class="st18" d="M24.1,283.9v5.7h-1v3.6v0.3c0.1,0.5,0.4,0.7,1,0.7v1l-1-0.2l-0.5-0.4c-0.3-0.3-0.5-0.9-0.5-1.6v-7
	c0-1,0.4-1.6,1.1-1.9L24.1,283.9"/>
<path class="st19" d="M24.1,294.3c-0.6,0-0.9-0.2-1-0.7v-0.3v-3.6h1V294.3"/>
<path class="st17" d="M29.3,283.9v-1h8.3v1H29.3 M37.6,295.3v1h-8.3v-1H37.6"/>
<path class="st18" d="M37.6,295.3h-8.3v-1h8.3V295.3 M37.6,283.9v5.7h-8.3v-5.7H37.6"/>
<path class="st19" d="M37.6,289.6v4.6h-8.3v-4.6H37.6"/>
<path class="st17" d="M42.7,295.3l1.1-0.2l0.4-0.3c0.3-0.3,0.5-0.9,0.5-1.6V286c0-1.4-0.7-2.1-2.1-2.1v-1c1,0,1.8,0.3,2.3,0.8
	s0.8,1.3,0.8,2.3v7.2c0,0.6-0.1,1.1-0.3,1.6l-0.5,0.8l-0.3,0.3c-0.5,0.4-1.2,0.5-2,0.5L42.7,295.3"/>
<path class="st19" d="M42.7,294.3v-4.6h1v3.6C43.8,293.9,43.4,294.3,42.7,294.3"/>
<path class="st18" d="M42.7,295.3v-1c0.7,0,1-0.3,1-1v-3.6h-1V284c1.4,0,2.1,0.7,2.1,2.1v7.2c0,0.7-0.2,1.2-0.5,1.6l-0.4,0.3
	L42.7,295.3"/>
<path class="st4" d="M173,202.5h-1l0.1-1c0.1-0.5,0.4-1,0.7-1.3c0.2-0.2,0.5-0.4,0.8-0.5c0.4-0.2,1-0.3,1.6-0.3h7.2
	c1,0,1.8,0.3,2.3,0.8c0.4,0.3,0.6,0.7,0.7,1.3l0.1,1h-1c0-0.4-0.1-0.7-0.2-1c-0.3-0.7-0.9-1.1-1.9-1.1h-7.2c-0.7,0-1.2,0.2-1.6,0.5
	c-0.2,0.2-0.3,0.3-0.4,0.5C173.1,201.7,173,202.1,173,202.5"/>
<path class="st5" d="M178.7,202.5H174c0-0.6,0.2-0.9,0.7-1h0.3h3.6L178.7,202.5"/>
<path class="st3" d="M178.7,202.5v-1h-3.6h-0.3c-0.5,0.1-0.7,0.4-0.7,1h-1c0-0.4,0.1-0.7,0.2-1c0.1-0.2,0.2-0.4,0.4-0.5
	c0.3-0.3,0.9-0.5,1.6-0.5h7.2c1,0,1.6,0.4,1.9,1.1c0.1,0.3,0.2,0.6,0.2,1h-5.9"/>
<path class="st4" d="M184.4,221.2h1c0,1-0.3,1.8-0.8,2.3s-1.3,0.8-2.3,0.8h-7.2c-0.6,0-1.1-0.1-1.6-0.3l-0.8-0.5l-0.3-0.3
	c-0.4-0.5-0.5-1.2-0.5-2h1c0,0.4,0.1,0.8,0.2,1.1l0.3,0.4c0.3,0.3,0.9,0.5,1.6,0.5h7.2C183.7,223.2,184.4,222.5,184.4,221.2"/>
<path class="st5" d="M174,221.2h4.6v1H175C174.4,222.2,174,221.8,174,221.2"/>
<path class="st3" d="M174,221.2c0,0.7,0.3,1,1,1h3.6v-1h5.7c0,1.4-0.7,2.1-2.1,2.1H175c-0.7,0-1.2-0.2-1.6-0.5l-0.3-0.4
	c-0.1-0.3-0.2-0.7-0.2-1.1h1.1"/>
<path class="st12" d="M163.6,221.2h1c0,1-0.3,1.8-0.8,2.3s-1.3,0.8-2.3,0.8h-7.2l-1.6-0.3l-0.8-0.5l-0.3-0.3c-0.4-0.5-0.5-1.2-0.5-2
	h1c0,0.4,0.1,0.8,0.2,1.1l0.3,0.4c0.3,0.3,0.9,0.5,1.6,0.5h7.2C162.9,223.2,163.6,222.5,163.6,221.2"/>
<path class="st14" d="M153.3,221.2h4.6v1h-3.6C153.6,222.2,153.3,221.8,153.3,221.2"/>
<path class="st13" d="M153.3,221.2c0,0.7,0.3,1,1,1h3.6v-1h5.7c0,1.4-0.7,2.1-2.1,2.1h-7.2c-0.7,0-1.2-0.2-1.6-0.5l-0.3-0.4
	c-0.1-0.3-0.2-0.7-0.2-1.1h1.1"/>
<path class="st6" d="M142.9,221.2h1c0,1-0.3,1.8-0.8,2.3s-1.3,0.8-2.3,0.8h-7.2c-0.6,0-1.1-0.1-1.6-0.3l-0.8-0.5l-0.3-0.3
	c-0.4-0.5-0.5-1.2-0.5-2h1c0,0.4,0.1,0.8,0.2,1.1l0.3,0.4c0.3,0.3,0.9,0.5,1.6,0.5h7.2C142.2,223.2,142.9,222.5,142.9,221.2"/>
<path class="st8" d="M132.5,221.2h4.6v1h-3.6C132.9,222.2,132.5,221.8,132.5,221.2"/>
<path class="st7" d="M132.5,221.2c0,0.7,0.3,1,1,1h3.6v-1h5.7c0,1.4-0.7,2.1-2.1,2.1h-7.2c-0.7,0-1.2-0.2-1.6-0.5l-0.3-0.4
	c-0.1-0.3-0.2-0.7-0.2-1.1h1.1"/>
<path class="st11" d="M116.4,221.2v1h-3.6c-0.7,0-1-0.3-1-1H116.4"/>
<path class="st9" d="M116.4,221.2h5.7c0,1.4-0.7,2.1-2.1,2.1h-7.2c-0.7,0-1.2-0.2-1.6-0.5l-0.3-0.4c-0.1-0.3-0.2-0.7-0.2-1.1h1
	c0,0.7,0.3,1,1,1h3.6L116.4,221.2"/>
<path class="st10" d="M110.7,221.2c0,0.4,0.1,0.8,0.2,1.1l0.3,0.4c0.3,0.3,0.9,0.5,1.6,0.5h7.2c1.4,0,2.1-0.7,2.1-2.1h1
	c0,1-0.3,1.8-0.8,2.3s-1.3,0.8-2.3,0.8h-7.2c-0.6,0-1.1-0.1-1.6-0.3l-0.8-0.5l-0.3-0.3c-0.4-0.5-0.5-1.2-0.5-2h1.1"/>
<path class="st17" d="M101.4,221.2h1c0,1-0.3,1.8-0.8,2.3s-1.3,0.8-2.3,0.8h-7.2l-1.6-0.3l-0.8-0.5l-0.3-0.3c-0.4-0.5-0.5-1.2-0.5-2
	h1c0,0.4,0.1,0.8,0.2,1.1l0.3,0.4c0.3,0.3,0.9,0.5,1.6,0.5h7.2C100.7,223.2,101.4,222.5,101.4,221.2"/>
<path class="st19" d="M91,221.2h4.6v1H92C91.4,222.2,91,221.8,91,221.2"/>
<path class="st18" d="M91,221.2c0,0.7,0.3,1,1,1h3.6v-1h5.7c0,1.4-0.7,2.1-2.1,2.1H92c-0.7,0-1.2-0.2-1.6-0.5l-0.3-0.4
	c-0.1-0.3-0.2-0.7-0.2-1.1H91"/>
<path class="st20" d="M80.8,223.5c-0.5,0.5-1.3,0.8-2.3,0.8h-7.2c-0.6,0-1.1-0.1-1.6-0.3l-0.8-0.5l-0.3-0.3c-0.4-0.5-0.5-1.2-0.5-2
	h13.5C81.7,222.2,81.4,222.9,80.8,223.5"/>
<path class="st20" d="M81.7,216H68.2v-8.3h13.5V216"/>
<path class="st17" d="M90,216h-1v-8.3h1V216 M101.4,207.7h1v8.3h-1V207.7"/>
<path class="st19" d="M91,207.7h4.6v8.3H91V207.7"/>
<path class="st18" d="M91,207.7v8.3h-1v-8.3H91 M95.7,207.7h5.7v8.3h-5.7V207.7"/>
<path class="st10" d="M122.1,207.7h1v8.3h-1V207.7 M110.7,216h-1v-8.3h1V216"/>
<path class="st9" d="M110.7,216v-8.3h1v8.3H110.7 M122.1,216h-5.7v-8.3h5.7V216"/>
<path class="st11" d="M116.4,216h-4.6v-8.3h4.6V216"/>
<path class="st6" d="M131.5,216h-1v-8.3h1V216 M142.9,207.7h1v8.3h-1V207.7"/>
<path class="st8" d="M132.5,207.7h4.6v8.3h-4.6V207.7"/>
<path class="st7" d="M132.5,207.7v8.3h-1v-8.3H132.5 M137.2,207.7h5.7v8.3h-5.7V207.7"/>
<path class="st12" d="M163.6,207.7h1v8.3h-1V207.7 M152.2,216h-1v-8.3h1V216"/>
<path class="st13" d="M152.2,216v-8.3h1v8.3H152.2 M163.6,207.7v8.3h-5.7v-8.3H163.6"/>
<path class="st14" d="M157.9,216h-4.6v-8.3h4.6V216"/>
<path class="st4" d="M173,207.7v8.3h-1v-8.3H173 M184.4,207.7h1v8.3h-1V207.7"/>
<path class="st3" d="M184.4,207.7v8.3h-5.7v-8.3H184.4 M173,216v-8.3h1v8.3H173"/>
<path class="st5" d="M174,216v-8.3h4.6v8.3H174"/>
<path class="st12" d="M152.2,202.5h-1l0.1-1c0.1-0.5,0.4-1,0.7-1.3l0.8-0.5c0.4-0.2,1-0.3,1.6-0.3h7.2c1,0,1.8,0.3,2.3,0.8
	c0.4,0.3,0.6,0.7,0.7,1.3l0.1,1h-1c0-0.4-0.1-0.7-0.2-1c-0.3-0.7-0.9-1.1-1.9-1.1h-7.2c-0.7,0-1.2,0.2-1.6,0.5l-0.4,0.5
	C152.3,201.7,152.2,202.1,152.2,202.5"/>
<path class="st13" d="M152.2,202.5c0-0.4,0.1-0.7,0.2-1l0.4-0.5c0.3-0.3,0.9-0.5,1.6-0.5h7.2c1,0,1.6,0.4,1.9,1.1
	c0.1,0.3,0.2,0.6,0.2,1H158v-1h-3.6h-0.3c-0.5,0.1-0.7,0.4-0.7,1h-1.2"/>
<path class="st14" d="M157.9,202.5h-4.6c0-0.6,0.2-0.9,0.7-1h0.3h3.6V202.5"/>
<path class="st6" d="M131.5,202.5h-1l0.1-1c0.1-0.5,0.4-1,0.7-1.3l0.8-0.5c0.4-0.2,1-0.3,1.6-0.3h7.2c1,0,1.8,0.3,2.3,0.8
	c0.4,0.3,0.6,0.7,0.7,1.3l0.1,1h-1c0-0.4-0.1-0.7-0.2-1c-0.3-0.7-0.9-1.1-1.9-1.1h-7.2c-0.7,0-1.2,0.2-1.6,0.5l-0.4,0.5
	C131.5,201.7,131.5,202.1,131.5,202.5"/>
<path class="st7" d="M131.5,202.5c0-0.4,0.1-0.7,0.2-1l0.4-0.5c0.3-0.3,0.9-0.5,1.6-0.5h7.2c1,0,1.6,0.4,1.9,1.1
	c0.1,0.3,0.2,0.6,0.2,1h-5.7v-1h-3.6h-0.3c-0.5,0.1-0.7,0.4-0.7,1h-1.2"/>
<path class="st8" d="M137.2,202.5h-4.6c0-0.6,0.2-0.9,0.7-1h0.3h3.6V202.5"/>
<path class="st10" d="M122.1,202.5c0-0.4-0.1-0.7-0.2-1c-0.3-0.7-0.9-1.1-1.9-1.1h-7.2c-0.7,0-1.2,0.2-1.6,0.5
	c-0.2,0.2-0.3,0.3-0.4,0.5c-0.1,0.3-0.2,0.6-0.2,1h-1l0.1-1v-0.1c0.1-0.5,0.3-0.9,0.7-1.2c0.2-0.2,0.5-0.4,0.8-0.5
	c0.4-0.2,1-0.3,1.6-0.3h7.2c1,0,1.8,0.3,2.3,0.8c0.4,0.3,0.6,0.7,0.7,1.3l0.1,1h-1"/>
<path class="st9" d="M122.1,202.5h-5.7v-1h-3.6h-0.3c-0.5,0.1-0.7,0.4-0.7,1h-1c0-0.4,0.1-0.7,0.2-1c0.1-0.2,0.2-0.4,0.4-0.5
	c0.3-0.3,0.9-0.5,1.6-0.5h7.2c1,0,1.6,0.4,1.9,1.1C122.1,201.7,122.1,202.1,122.1,202.5"/>
<path class="st11" d="M111.8,202.5c0-0.6,0.2-0.9,0.7-1h0.3h3.6v1H111.8"/>
<path class="st17" d="M90,202.5h-1V202l0.1-0.5c0.1-0.5,0.4-1,0.7-1.3c0.2-0.2,0.5-0.4,0.8-0.5c0.4-0.2,1-0.3,1.6-0.3h7.2
	c1,0,1.8,0.3,2.3,0.8c0.4,0.3,0.6,0.7,0.7,1.3l0.1,0.5v0.5h-1V202l-0.2-0.5c-0.3-0.7-0.9-1.1-1.9-1.1h-7.2c-0.7,0-1.2,0.2-1.6,0.5
	l-0.4,0.5L90,202V202.5"/>
<path class="st18" d="M90,202.5V202l0.1-0.5l0.4-0.5c0.3-0.3,0.9-0.5,1.6-0.5h7.2c1,0,1.6,0.4,1.9,1.1l0.2,0.5v0.5h-5.7v-1h-3.6
	h-0.3c-0.3,0.1-0.5,0.2-0.6,0.5c-0.1,0.1-0.1,0.3-0.1,0.5H90"/>
<path class="st19" d="M95.7,202.5H91c0-0.2,0-0.4,0.1-0.5c0.1-0.3,0.3-0.5,0.6-0.5H92h3.6L95.7,202.5"/>
<path class="st20" d="M81.7,202.5H68.2l0.1-1c0.1-0.5,0.4-1,0.7-1.3l0.8-0.5c0.4-0.2,1-0.3,1.6-0.3h7.2c1,0,1.8,0.3,2.3,0.8
	c0.4,0.3,0.6,0.7,0.7,1.3L81.7,202.5"/>
<path class="st32" d="M257.6,258c-1.1,0-1.9,0.3-2.3,1c-0.2,0.4-0.4,0.9-0.4,1.6v44.5c0,1.8,0.9,2.6,2.6,2.6h41.2
	c0.3,0,0.5-0.1,0.7-0.3l4.9-4.9c0.2-0.2,0.3-0.5,0.3-0.8v-41.2c0-0.6-0.1-1.2-0.4-1.6c-0.4-0.7-1.2-1-2.3-1L257.6,258 M254.4,258.5
	c0.6-1,1.6-1.6,3.2-1.6h44.6c1.6,0,2.6,0.5,3.1,1.6c0.3,0.5,0.5,1.2,0.5,2.1v41.2c0,0.6-0.2,1.1-0.6,1.5l-4.9,4.9l0,0
	c-0.4,0.4-0.9,0.6-1.5,0.6h-41.2c-1.2,0-2.1-0.3-2.7-1c-0.6-0.6-1-1.5-1-2.7v-44.5C253.9,259.8,254.1,259,254.4,258.5"/>
<path class="st27" d="M256,260.6c0-1,0.5-1.6,1.5-1.6h44.7c1,0,1.5,0.5,1.5,1.6v41.2l-4.9,4.9h-41.2c-1.1,0-1.6-0.5-1.6-1.6V260.6"
	/>
<path class="st28" d="M256,260.6v44.5c0,1.1,0.5,1.6,1.6,1.6h41.2l4.9-4.9v-41.2c0-1-0.5-1.6-1.5-1.6h-44.7
	C256.5,259,256,259.6,256,260.6 M257.6,258h44.6c1.1,0,1.9,0.3,2.3,1c0.2,0.4,0.4,0.9,0.4,1.6v41.2c0,0.3-0.1,0.5-0.3,0.8l-4.9,4.9
	c-0.2,0.2-0.4,0.3-0.7,0.3h-41.2c-1.7,0-2.6-0.9-2.6-2.6v-44.5c0-0.6,0.1-1.2,0.4-1.6C255.7,258.3,256.5,258,257.6,258"/>
<path class="st27" d="M359.2,259c1,0,1.6,0.5,1.6,1.5v44.7c0,1-0.5,1.5-1.6,1.5H318l-4.9-4.9v-41.2c0-1.1,0.5-1.6,1.6-1.6H359.2"/>
<path class="st28" d="M359.2,259h-44.5c-1.1,0-1.6,0.5-1.6,1.6v41.2l4.9,4.9h41.2c1,0,1.6-0.5,1.6-1.5v-44.7
	C360.8,259.5,360.3,259,359.2,259 M361.9,260.6v44.6c0,1.1-0.3,1.9-1,2.3c-0.4,0.2-0.9,0.4-1.6,0.4H318c-0.3,0-0.5-0.1-0.8-0.3
	l-4.9-4.9c-0.2-0.2-0.3-0.4-0.3-0.7v-41.2c0-1.7,0.9-2.6,2.6-2.6h44.5c0.6,0,1.2,0.1,1.6,0.4C361.5,258.8,361.9,259.5,361.9,260.6"
	/>
<path class="st32" d="M361.9,260.6c0-1.1-0.3-1.9-1-2.3c-0.4-0.2-0.9-0.4-1.6-0.4h-44.5c-1.8,0-2.6,0.9-2.6,2.6v41.2
	c0,0.3,0.1,0.5,0.3,0.7l4.9,4.9c0.2,0.2,0.5,0.3,0.8,0.3h41.2c0.6,0,1.2-0.1,1.6-0.4c0.7-0.4,1-1.2,1-2.3L361.9,260.6 M362.9,260.6
	v44.6c0,1.6-0.5,2.6-1.6,3.1c-0.5,0.3-1.2,0.5-2.1,0.5H318c-0.6,0-1.1-0.2-1.5-0.6l-4.9-4.9l0,0c-0.4-0.4-0.6-0.9-0.6-1.5v-41.2
	c0-1.2,0.3-2.1,1-2.7c0.6-0.6,1.5-1,2.7-1h44.5c0.9,0,1.6,0.2,2.1,0.5C362.4,258,362.9,259.1,362.9,260.6"/>
<path class="st32" d="M420,260.6v44.5c0,0.9-0.2,1.6-0.5,2.1c-0.6,1-1.6,1.6-3.2,1.6h-44.6c-1.6,0-2.6-0.5-3.1-1.6
	c-0.3-0.5-0.5-1.2-0.5-2.1V264c0-0.6,0.2-1.1,0.6-1.5l4.9-4.9l0,0c0.4-0.4,0.9-0.6,1.5-0.6h41.2c1.2,0,2.1,0.3,2.7,1
	C419.7,258.5,420,259.4,420,260.6 M418.9,260.6c0-1.8-0.9-2.6-2.6-2.6h-41.2c-0.3,0-0.5,0.1-0.7,0.3l-4.9,4.9
	c-0.2,0.2-0.3,0.5-0.3,0.8v41.2c0,0.6,0.1,1.2,0.4,1.6c0.4,0.7,1.2,1,2.3,1h44.6c1.1,0,1.9-0.3,2.3-1c0.2-0.4,0.4-0.9,0.4-1.6v-44.6
	"/>
<path class="st28" d="M416.3,259h-41.2l-4.9,4.9v41.2c0,1,0.5,1.6,1.5,1.6h44.7c1,0,1.5-0.5,1.5-1.6v-44.5
	C417.9,259.6,417.4,259,416.3,259 M418.9,260.6v44.5c0,0.6-0.1,1.2-0.4,1.6c-0.4,0.7-1.2,1-2.3,1h-44.6c-1.1,0-1.9-0.3-2.3-1
	c-0.2-0.4-0.4-0.9-0.4-1.6V264c0-0.3,0.1-0.5,0.3-0.8l4.9-4.9c0.2-0.2,0.4-0.3,0.7-0.3H416C418.1,258,418.9,258.9,418.9,260.6"/>
<path class="st27" d="M416.3,259c1.1,0,1.6,0.5,1.6,1.6v44.5c0,1-0.5,1.6-1.5,1.6h-44.7c-1,0-1.5-0.5-1.5-1.6V264l4.9-4.9h41.2"/>
<path class="st32" d="M428.8,258c-1.7,0-2.6,0.9-2.6,2.6v44.6c0,1.7,0.9,2.6,2.6,2.6h44.5c1.8,0,2.6-0.9,2.6-2.6v-44.6
	c0-1.7-0.9-2.6-2.6-2.6H428.8 M428.8,257h44.5c1.2,0,2.1,0.3,2.7,1c0.6,0.6,1,1.5,1,2.7v44.6c0,1.2-0.3,2.1-1,2.7
	c-0.6,0.6-1.5,1-2.7,1h-44.5c-2.4,0-3.7-1.2-3.7-3.7v-44.6C425.2,258.2,426.4,257,428.8,257"/>
<path class="st28" d="M427.2,262.6v40.5c0,1,0.5,1.5,1.6,1.5h44.5c1.1,0,1.6-0.5,1.6-1.5v-40.5c0-1-0.6-1.5-1.6-1.5h-44.5
	C427.8,261.1,427.3,261.6,427.2,262.6 M428.8,258h44.5c1.8,0,2.6,0.9,2.6,2.6v44.6c0,1.7-0.9,2.6-2.6,2.6h-44.5
	c-1.7,0-2.6-0.9-2.6-2.6v-44.6C426.2,258.9,427.1,258,428.8,258"/>
<path class="st27" d="M427.2,262.6c0-1,0.5-1.5,1.6-1.5h44.5c1.1,0,1.6,0.5,1.6,1.5v40.5c0,1-0.6,1.5-1.6,1.5h-44.5
	c-1,0-1.6-0.5-1.6-1.5V262.6"/>
<path class="st32" d="M476,203.5c0-1.7-0.9-2.6-2.6-2.6h-44.5c-1.7,0-2.6,0.9-2.6,2.6v44.6c0,1.7,0.9,2.6,2.6,2.6h44.5
	c1.8,0,2.6-0.9,2.6-2.6V203.5 M477,203.5v44.6c0,1.2-0.3,2.1-1,2.7c-0.6,0.6-1.5,1-2.7,1h-44.5c-2.4,0-3.7-1.2-3.7-3.7v-44.6
	c0-2.4,1.2-3.7,3.7-3.7h44.5c1.2,0,2.1,0.3,2.7,1C476.7,201.4,477,202.3,477,203.5"/>
<path class="st27" d="M473.4,202c1.1,0,1.6,0.5,1.6,1.6v44.6c0,1.1-0.5,1.6-1.6,1.6h-44.5c-1.1,0-1.6-0.5-1.6-1.6v-44.6
	c0-1.1,0.5-1.6,1.6-1.6H473.4"/>
<path class="st28" d="M473.4,202h-44.5c-1.1,0-1.6,0.5-1.6,1.6v44.6c0,1.1,0.5,1.6,1.6,1.6h44.5c1.1,0,1.6-0.5,1.6-1.6v-44.6
	C475,202.5,474.4,202,473.4,202 M476,203.5v44.6c0,1.7-0.9,2.6-2.6,2.6h-44.5c-1.7,0-2.6-0.9-2.6-2.6v-44.6c0-1.7,0.9-2.6,2.6-2.6
	h44.5C475.1,200.9,476,201.8,476,203.5"/>
<path class="st32" d="M416.3,200.9h-7.9l-5.9-5.9c-0.2-0.2-0.5-0.3-0.8-0.3h-26.5c-0.3,0-0.5,0.1-0.7,0.3s-0.3,0.4-0.3,0.7v5.2h-2.4
	c-1.7,0-2.6,0.9-2.6,2.6v44.6c0,1.7,0.9,2.6,2.6,2.6h44.5c1.8,0,2.6-0.9,2.6-2.6v-44.6C418.9,201.8,418.1,200.9,416.3,200.9
	 M419,200.8c0.6,0.6,1,1.5,1,2.7v44.6c0,1.2-0.3,2.1-1,2.7c-0.6,0.6-1.5,1-2.7,1h-44.5c-2.4,0-3.7-1.2-3.7-3.7v-44.6
	c0-2.4,1.2-3.7,3.7-3.7h1.4v-4.2c0-0.6,0.2-1.1,0.6-1.5l0,0c0.4-0.4,0.9-0.6,1.5-0.6h26.5c0.6,0,1.1,0.2,1.5,0.6l5.6,5.6h7.5
	C417.5,199.9,418.4,200.2,419,200.8"/>
<path class="st28" d="M416.3,200.9c1.8,0,2.6,0.9,2.6,2.6v44.6c0,1.7-0.9,2.6-2.6,2.6h-44.5c-1.7,0-2.6-0.9-2.6-2.6v-44.6
	c0-1.7,0.9-2.6,2.6-2.6h2.4v-5.2c0-0.3,0.1-0.5,0.3-0.7c0.2-0.2,0.4-0.3,0.7-0.3h26.5c0.3,0,0.5,0.1,0.8,0.3l5.9,5.9H416.3
	 M417.9,203.5c0-1.1-0.5-1.6-1.6-1.6h-8.4l-6.2-6.2h-26.5v6.2h-3.5c-1.1,0-1.6,0.5-1.6,1.6v44.6c0,1.1,0.5,1.6,1.6,1.6h44.5
	c1.1,0,1.6-0.5,1.6-1.6v-44.6"/>
<path class="st27" d="M417.9,203.5v44.6c0,1.1-0.5,1.6-1.6,1.6h-44.5c-1.1,0-1.6-0.5-1.6-1.6v-44.6c0-1.1,0.5-1.6,1.6-1.6h3.5v-6.2
	h26.5l6.2,6.2h8.4C417.4,202,417.9,202.5,417.9,203.5"/>
<path class="st32" d="M362.9,207.1v37.4c0,0.6-0.2,1.1-0.6,1.5l-5.2,5.2c-0.4,0.4-0.9,0.6-1.5,0.6h-37.4c-0.6,0-1.1-0.2-1.5-0.6l0,0
	l-5.2-5.2c-0.4-0.4-0.6-0.9-0.6-1.5v-37.4c0-0.6,0.2-1.1,0.6-1.5l0,0l5.2-5.2l0,0c0.4-0.4,0.9-0.6,1.5-0.6h37.4
	c0.6,0,1.1,0.2,1.5,0.6l5.2,5.2l0,0C362.7,206.1,362.9,206.6,362.9,207.1 M361.9,207.1c0-0.3-0.1-0.5-0.3-0.7l-5.2-5.2
	c-0.2-0.2-0.5-0.3-0.8-0.3h-37.4c-0.3,0-0.5,0.1-0.7,0.3l-5.2,5.2c-0.2,0.2-0.3,0.4-0.3,0.7v37.4c0,0.3,0.1,0.5,0.3,0.8l5.2,5.2
	c0.2,0.2,0.4,0.3,0.7,0.3h37.4c0.3,0,0.5-0.1,0.8-0.3l5.2-5.2c0.2-0.2,0.3-0.5,0.3-0.8V207.1"/>
<path class="st28" d="M361.9,207.1v37.4c0,0.3-0.1,0.5-0.3,0.8l-5.2,5.2c-0.2,0.2-0.5,0.3-0.8,0.3h-37.4c-0.3,0-0.5-0.1-0.7-0.3
	l-5.2-5.2c-0.2-0.2-0.3-0.5-0.3-0.8v-37.4c0-0.3,0.1-0.5,0.3-0.7l5.2-5.2c0.2-0.2,0.4-0.3,0.7-0.3h37.4c0.3,0,0.5,0.1,0.8,0.3
	l5.2,5.2C361.8,206.6,361.9,206.9,361.9,207.1 M355.6,202h-37.4l-5.2,5.2v37.4l5.2,5.2h37.4l5.2-5.2v-37.4L355.6,202"/>
<path class="st27" d="M355.6,202l5.2,5.2v37.4l-5.2,5.2h-37.4l-5.2-5.2v-37.4l5.2-5.2L355.6,202"/>
<path class="st27" d="M298.8,202l4.9,4.9v41.2c0,1.1-0.5,1.6-1.6,1.6h-44.5c-1,0-1.6-0.5-1.6-1.5v-44.7c0-1,0.5-1.5,1.6-1.5H298.8"
	/>
<path class="st28" d="M298.8,202h-41.2c-1,0-1.6,0.5-1.6,1.5v44.7c0,1,0.5,1.5,1.6,1.5h44.5c1.1,0,1.6-0.5,1.6-1.6v-41.2L298.8,202
	 M304.8,206.9v41.2c0,1.7-0.9,2.6-2.6,2.6h-44.5c-0.6,0-1.2-0.1-1.6-0.4c-0.7-0.4-1-1.2-1-2.3v-44.6c0-1.1,0.3-1.9,1-2.3
	c0.4-0.2,0.9-0.4,1.6-0.4h41.2c0.3,0,0.5,0.1,0.8,0.3l4.9,4.9C304.7,206.4,304.8,206.6,304.8,206.9"/>
<path class="st32" d="M304.8,206.9c0-0.3-0.1-0.5-0.3-0.7l-4.9-4.9c-0.2-0.2-0.5-0.3-0.8-0.3h-41.2c-0.6,0-1.2,0.1-1.6,0.4
	c-0.7,0.4-1,1.2-1,2.3v44.6c0,1.1,0.3,1.9,1,2.3c0.4,0.2,0.9,0.4,1.6,0.4h44.5c1.8,0,2.6-0.9,2.6-2.6L304.8,206.9 M305.2,205.4
	L305.2,205.4c0.4,0.4,0.6,0.9,0.6,1.5v41.2c0,1.2-0.3,2.1-1,2.7c-0.6,0.6-1.5,1-2.7,1h-44.5c-0.9,0-1.6-0.2-2.1-0.5
	c-1-0.6-1.6-1.6-1.6-3.2v-44.6c0-1.6,0.5-2.6,1.6-3.1c0.5-0.3,1.2-0.5,2.1-0.5h41.2c0.6,0,1.1,0.2,1.5,0.6L305.2,205.4"/>
</svg>
